<svg width="220" height="141" viewBox="0 0 220 141" fill="none" xmlns="http://www.w3.org/2000/svg">
<path fill-rule="evenodd" clip-rule="evenodd" d="M35.4908 4.98458L34.6631 12.2238L21.1856 24.8125L19.8613 26.0491L18.8543 37.8458L20.2062 43.2092L17.6955 53.1301L7.17013 57.771L4.42498 63.8569L5.41821 68.1782L1.41773 76.8763L3.04551 77.2654L6.31487 78.7243L9.92908 81.8506L13.5433 86.3804L17.6404 90.3126L21.4615 92.2995L25.5585 92.897L37.0909 94.5505L42.9537 96.0928L45.5057 97.5101L48.0164 99.9417L50.6374 102.887L55.1207 108.64L56.9554 110.794L59.3695 112.044L61.9491 112.739L75.5645 113.211L78.889 113.753L81.5514 114.517L188.944 139.764L197.869 84.5046L197.096 74.7782L203.207 37.7069L208.987 42.5561L209.636 35.1641L218.106 25.7573L210.05 23.0617L202.656 22.6171L183.426 20.8386L150.222 15.8364L91.5388 5.16522L78.8063 2.60856L71.4123 2.2751L67.1497 3.94247L43.7262 2.83088L40.512 1.1774L35.5321 4.95679L35.4908 4.98458Z" fill="#F5F5F5" stroke="black" stroke-width="2" stroke-miterlimit="10"/>
</svg>
