<svg width="295" height="335" viewBox="0 0 295 335" fill="none" xmlns="http://www.w3.org/2000/svg">
<path fill-rule="evenodd" clip-rule="evenodd" d="M141.817 291.117L146.686 288.352L148.797 284.628L148.438 277.375L151.17 274.151L150.301 270.386L148.507 266.092L148.231 262.507L150.176 260.215L154.136 259.673L156.77 257.06L156.384 247.765L161.364 242.596L163.778 241.79L166.165 239.553L170.675 240.887L173.793 237.524L175.173 232.967L179.642 232.564L182.967 234.328L185.67 231.48H193.147L195.409 233.12L197.879 234.606L200.458 237.121L202.583 237.455L203.962 236.024L205.949 231.925L216.074 221.101H219.592L221.426 219.753L222.861 217.224L224.64 219.989L229.179 228.104L229.993 229.16L231.524 229.563L233.414 228.048L239.111 218.447L240.394 216.293L242.325 215.779L244.85 218.127L248.312 222.407L246.257 225.519L245.76 228.395L246.588 232.647L246.243 237.983L248.602 245.347L249.057 248.321L251.154 244.513L251.802 237.691L254.216 233.578L258.865 229.451L260.286 225.769L262.824 222.282L270.66 218.419L271.639 216.752L270.591 214.834L265.5 211.611L264.756 207.72L265.666 204.135L267.197 202.023L270.411 202.287L277.543 196.951L279.475 196.062L282.565 196.396L284.979 195.965L286.634 193.825L285.324 190.907V188.684L286.993 187.267L289.09 186.836L288.496 184.015L286.993 181.361L288 178.444L288.303 173.886L287.82 167.675L289.821 163.687L292.331 161.297L289.559 160.269L275.157 171.093L270.784 165.23L267.887 167.119L266.59 160.061L257.527 166.174L256.534 158.532L251.761 154.1L244.946 158.338L223.344 157.671L218.116 158.505L215.412 156.406L217.522 151.571L214.763 142.234L211.342 138.718L219.412 133.813L214.281 133.411L123.497 114.847L103.729 111.498H88.3484L83.4374 112.499L79.4921 106.996L68.0149 104.537L65.5042 100.66L65.4215 81.8191L64.511 77.6368L64.8007 59.3512L63.2281 50.0139L53.5994 49.8749L54.5374 32.5759L60.6347 6.77324L64.8283 7.09283L66.7734 1.04858L54.7168 1.46541L47.171 2.17406L42.3291 3.36904L8.76645 15.4158L14.1602 175.498L21.9267 172.483L23.1406 195.659L23.6234 225.464L23.7889 235.899L22.8509 256.463L11.084 261.02L3.27617 271.983L7.55251 272.539L10.6839 274.498H12.6428L13.4291 271.178L15.2362 268.315L16.795 266.175L19.7471 263.438L21.1955 263.049L22.3129 263.271L23.0164 264.077L23.2509 265.3L22.7543 266.439L21.4852 268.26L21.1128 270.927L22.2439 273.123L20.1195 275.791V280.195L18.1055 285.378V291.492L14.8913 295.716L10.3942 299.523L5.86954 300.343L2.62781 306.165V308.332L1.34487 310.917L1 315.752V319.003L2.31052 320.518L3.91071 320.824L4.32454 316.28L5.7454 311.417L7.2904 308.846L9.96659 306.998H12.7532L15.6501 308.179L19.8436 309.624L24.4235 310.986L26.9203 313.459L27.8584 317.183L27.1824 323.089L29.293 326.479L29.9276 331.245L32.2313 332.94L34.1212 331.939L33.4315 328.771L34.4661 324.325L35.6662 320.796L36.0938 316.53L35.4869 311.959L35.0869 307.04L36.0801 304.011L40.8117 296.869L40.4254 293.715L42.3291 291.117L44.1638 286.726L43.7086 281.849L45.226 278.82L49.0471 279.737L52.7717 283.252L56.0135 283.877L59.2828 286.865L60.8002 286.559L62.5108 285.239L65.1594 285.503L67.4769 281.71L68.2632 278.778L68.746 274.151L69.2012 271.567L70.3462 272.72L70.8014 275.638L71.5739 278.458L72.1671 285.114L73.8363 288.24L75.271 289.477L77.0091 288.379L78.3058 285.183L80.1956 282.085L82.6787 280.543L84.472 283.197L87.162 286.226L91.7557 285.114L93.1076 283.905L92.6523 278.792L94.7629 276.096L97.3839 275.735L97.9909 271.997L96.0458 265.606L97.4115 263.41L95.632 260.298L93.7283 259.992L91.1211 258.603L88.8864 255.324L88.3484 250.613L81.2027 248.696L80.306 245.611L81.8097 244.055L83.0926 243.096L86.4861 242.165L90.8314 241.915L95.9907 242.387V237.844L99.0807 236.163L101.84 237.816L100.598 242.11L103.343 243.541L107.151 240.053L110.434 242.346V247.89L108.116 252.308L113.179 254.976L114.945 251.822H116.71V255.393L118.876 256.602L122.739 252.058L129.608 255.073L125.167 260.298L130.464 261.215L131.167 264.744L127.401 268.274L130.312 287.115L129.402 290.922L127.291 296.133L128.67 303.511L132.257 302.899L135.582 299.954L138.106 298.147L141.168 295.146L141.775 291.158L141.817 291.117Z" fill="#F5F5F5" stroke="black" stroke-width="2" stroke-miterlimit="10"/>
</svg>
