<svg width="227" height="304" viewBox="0 0 227 304" fill="none" xmlns="http://www.w3.org/2000/svg">
<path fill-rule="evenodd" clip-rule="evenodd" d="M131.087 170.215H143.241V162.726L146.206 160.461V143.342L149.048 134.561V127.53L151.269 124.612V119.138L148.689 113.927L151.876 109.467L151.628 105.785L148.538 105.271L144.855 109.147L141.833 110.217L137.585 109.147L132.412 104.743L126.852 102.797L132.936 95.5442V91.0562L129.598 86.0402L130.715 80.774L125.569 72.8818V67.046L128.673 61.8354L128.122 59.0704L129.667 56.5693L128.549 52.9011L133.35 52.3592L135.971 49.8164L134.398 43.5082L131.722 41.41L128.563 37.5751L130.136 34.7267L132.77 32.7536L133.253 30.4887L129.777 28.2378L130.425 24.0415L133.336 22.2352L132.743 20.4984L129.17 19.8036L124.783 20.6929L120.162 22.5965L118.065 19.1089L119.155 11.3139L118.134 0.100784L116.824 13.0369L112.754 16.6912L110.175 24.6529L113.858 34.2681V41.6741L115.927 47.3987L111.347 53.443L108.616 61.4742L100.96 65.3091L99.994 73.0068L103.539 78.4675L97.4834 90.8061L96.4488 95.6137L99.6905 99.532L92.1034 102.895L81.3021 110.759L81.2194 115.247L70.5974 121.875L67.2729 126.891L64.2794 136.339L53.1608 143.509L48.8707 142.133L44.2356 145.274L42.0699 156.806L31.5721 163.156L30.7168 167.2L25.8334 175.203V187.82L25.0196 195.406L22.8262 205.299L16.2599 208.717L1.95474 221.459L8.70035 223.71L6.75529 225.725L13.8596 232.992L13.1147 234.715L19.474 237.758L24.385 245.65L31.4479 254.015L28.4544 257.975L27.9302 264.7L33.2274 272.508L40.9249 279.178L53.9333 270.98L66.6107 271.452L75.0117 277.719L80.8607 278.733L87.5925 285.056L84.4887 291.308L91.1516 301.896L106.629 289.808L116.368 296.644L127.942 297.255L131.915 292.309L136.605 288.237L143.406 284.208L150.552 288.599L154.4 287.126L160.291 286.306L179.686 290.155L185.149 295.977L193.136 293.351L197.178 293.781L199.882 289.71V284.18L202.392 281.971L208.683 281.679L217.401 272.675L225.485 235.187L223.305 232.144H218.946L213.152 235.632L201.647 219.389L197.04 216.901L193.536 220.57L192.005 227.1L189.977 232.089L180.9 241.815L171.396 253.667L166.926 255.001L164.167 252.264L164.995 248.095L161.739 245.553L154.952 244.719L144.579 244.316L141.571 241.301V232.908L142.399 222.459L129.86 219.847L136.04 214.984L132.991 202.034L134.812 199.241V195.476L140.62 190.835L127.597 187.681L118.934 183.137L117.127 174.633L120.038 168.923L131.032 170.229L131.087 170.215Z" fill="#F5F5F5" stroke="black" stroke-width="2" stroke-miterlimit="10"/>
</svg>
