<svg width="341" height="174" viewBox="0 0 341 174" fill="none" xmlns="http://www.w3.org/2000/svg">
<path fill-rule="evenodd" clip-rule="evenodd" d="M113.655 120.732L175.856 140.672L171.166 157.498L188.037 164.126L200.686 172.393L208.439 159.291L209.515 153.093L213.185 149.814L212.44 146.229L221.296 137.712L220.937 132.64L228.235 123.623L227.283 120.58L229.159 115.369L231.918 115.188V119.204L229.545 128.583L234.125 129.139L238.553 135.989L246.72 127.569L254.541 135.628L250.003 142.478L243.547 149.106L254.665 160.402L259.08 156.345L263.687 161.055L267.26 160.277L272.198 161.291L281.482 168.989L288.476 168.739L308.644 141.714L320.839 147.41L329.24 148.717L337.199 133.53L339.544 116.453L226.938 89.2746L223.862 89.0106L213.695 88.3298L210.784 87.7601L208.039 86.6207L205.97 84.9394L199.279 76.7971L196.093 73.3512L192.534 71.0724L187.002 69.7246L176.987 68.7798L173.18 68.0572L169.014 66.3899L164.82 63.2218L161.206 58.6921L157.743 55.1629L153.481 52.7035L141.452 49.7439L138.265 48.2293L135.851 46.1173L133.534 43.1161L130.857 38.1417L127.988 33.4731L124.981 29.7354L121.946 27.4705L114.607 25.4974L110.524 23.9134L97.8328 17.1328L89.6939 15.1319L76.6579 9.64346L68.4224 7.58703L60.6836 8.14282L48.5304 9.51841L34.5977 9.08768L27.6452 11.0052L24.1275 10.8523L21.2444 9.47673L11.1466 1.48721L6.45642 9.22663L5.47699 12.3252L7.75312 57.0109L2.51112 67.1541L1.03508 72.4897L2.46973 78.0476L5.94601 81.9659L5.54596 87.7323L15.2851 96.486L16.968 108.213L33.5631 112.09L52.655 112.799L53.2068 109.367L58.8489 109.283L58.7937 91.7896H58.8489L71.4297 89.2051L90.9631 98.7509L89.7767 101.794L98.3984 105.309L97.2121 114.285L102.62 119.051L108.648 116.884L113.586 120.788L113.655 120.732Z" fill="#F5F5F5" stroke="black" stroke-width="2" stroke-miterlimit="10"/>
</svg>
