<svg width="191" height="142" viewBox="0 0 191 142" fill="none" xmlns="http://www.w3.org/2000/svg">
<path fill-rule="evenodd" clip-rule="evenodd" d="M47.1611 21.112L41.5191 21.1954L40.9673 24.6274L21.8754 23.9188L5.28029 20.0421L3.34902 47.6511L1.11427 54.7236L4.86644 59.42L6.57699 71.7864L15.4608 90.6L13.3778 102.091L14.2607 114.11L11.5569 119.112L14.9366 125.532H19.9993L24.2757 129.019L26.3311 129.533L32.1662 122.475L34.2217 121.127L39.643 121.961L43.2848 116.111L46.968 108.246L53.0377 106.982L57.8797 108.08L62.0319 109.761L62.5147 112.54L61.4387 117.222L62.156 121.488L63.9356 123.906L67.1635 125.67H77.3992L79.9788 123.545L84.2138 124.059L87.9522 127.824L97.0981 128.964L99.388 125.976L102.147 125.476L106.092 129.075L111.183 129.908L112.907 134.216L115.969 138.454L118.397 139.704V136.633L122.205 133.716L126.095 133.771L129.35 129.867L130.109 124.198L136.275 116.486L139.931 120.057L143.738 127.157L152.47 127.866L157.381 130.131L163.644 124.253L166.693 118.265L171.19 115.263V111.609H176.501L180.294 109.539L186.93 97.2834L188.944 84.2917L176.294 76.0243L159.423 69.3965L164.113 52.5699L101.912 32.6308L96.974 28.7264L90.9457 30.894L85.5381 26.128L86.7245 17.152L78.1028 13.6366L79.2891 10.5937L59.7557 1.04791L47.1749 3.61846V21.112H47.1611Z" fill="#F5F5F5" stroke="black" stroke-width="2" stroke-miterlimit="10"/>
</svg>
