<svg width="395" height="259" viewBox="0 0 395 259" fill="none" xmlns="http://www.w3.org/2000/svg">
<path fill-rule="evenodd" clip-rule="evenodd" d="M307.547 253.667V250.249L316.251 239.022L328.611 235.84L335.012 235.187L339.675 230.518L350.352 213.566V206.897L355.704 202.562L367.761 183.679L370.52 174.55L369.264 165.727L372.575 161.03L372.203 156.945L378.024 150.067L384.121 145.954L387.06 138.715L390.246 135.144L388.646 128.502L393.143 120.11L389.86 111.787V103.325L391.75 94.4601L387.473 92.0285L384.77 89.2357L382.921 85.3173L378.783 84.4975L373.444 85.4285H368.989L365.843 83.6361L361.429 85.2617L355.842 86.1927L353.014 83.5944L351.814 78.4533L354.766 74.8268L355.911 71.1446L356.67 61.0848L352.435 59.9176L347.731 61.5433L340.999 60.8764L339.702 65.684L337.012 70.3387L323.107 69.3105L325.163 65.3505L318.734 59.7509L315.065 53.5538L312.071 51.2056L308.968 47.3706L305.34 45.606L301.794 48.5517L297.132 49.1769L292.428 50.6776L288.827 52.1643L284.758 49.83L281.088 51.553L277.129 54.0123L273.75 51.289L269.252 50.4275L264.038 48.8712L259.651 45.9811L252.354 45.2586L245.967 37.3386L241.18 39.0615L236.462 36.6855L230.724 36.2131L226.144 33.6148H222.626L219.481 34.8236L216.929 32.7811L210.68 30.8358L209.052 27.1259L206.735 24.736L204.376 25.0555L201.134 26.8758L196.154 26.1255L193.947 21.957L192.926 15.885L189.602 12.2028L185.987 10.8412H179.187L170.965 10.3548L165.847 8.29841L156.632 6.00577L153.308 3.25459L147.707 4.39396L143.762 3.18512L140.148 6.88113L135.54 3.39355L130.877 2.33754L119.4 1.18427L124.932 11.3414L125.801 20.9844L124.628 31.5444L117.372 31.1276L109.509 40.0897L102.364 47.3011L99.4116 52.5256L92.1142 60.1677L96.7216 62.6549L108.226 78.8979L114.02 75.4103H118.379L120.559 78.4533L112.475 115.941L103.757 124.945L97.4666 125.237L94.9559 127.446V132.977L92.2521 137.048L88.2103 136.617L80.2231 139.243L74.7604 133.421L55.365 129.572L49.4746 130.392V137.701L46.5088 141.814H42.7842L40.9357 148.4V152.846L36.2178 154.263V159.015L28.0928 160.738L19.3469 172.882L5.88321 191.071L1.41373 201.992L224.364 232.783L269.018 247.289L297.449 255.015L304.167 257.377L307.519 253.695L307.547 253.667Z" fill="#F5F5F5" stroke="black" stroke-width="2" stroke-miterlimit="10"/>
</svg>
