<svg width="289" height="173" viewBox="0 0 289 173" fill="none" xmlns="http://www.w3.org/2000/svg">
<path fill-rule="evenodd" clip-rule="evenodd" d="M214.06 160.001L215.356 167.06L218.253 165.17L222.626 171.034L237.028 160.209L239.801 161.238L242.091 158.07L243.401 153.734L244.808 149.663L246.119 148.329L247.746 147.649L249.898 144.161L252.919 140.062L255.706 139.159L258.975 138.77L264.714 140.229L267.307 139.006L268.99 135.032L270.453 133.448L273.791 133.837L277.681 137.269L280.109 138.923L282.206 137.894L283.392 133.726L284.206 128.599L285.351 123.291L287.558 114.662L281.681 110.452L279.378 102.685L271.156 85.3442L270.218 80.9813L278.205 71.2688L282.275 46.1053L238.214 31.7936L15.2634 1.00275L14.2288 1.04443L12.2838 7.08864L8.09016 6.76908L1.9929 32.5718L1.05487 49.8708L10.6836 50.0097L12.2562 59.347L11.9665 77.6326L12.8769 81.8149L12.9597 100.656L15.4704 104.533L26.9476 106.992L30.8929 112.495L35.8038 111.494H51.185L70.9528 114.843L161.736 133.406L166.868 133.809L158.798 138.714L162.219 142.23L164.978 151.567L162.867 156.402L165.571 158.5L170.799 157.667L192.402 158.334L199.216 154.096L203.989 158.528L204.983 166.17L214.046 160.057L214.06 160.001Z" fill="#F5F5F5" stroke="black" stroke-width="2" stroke-miterlimit="10"/>
</svg>
