<svg width="220" height="174" viewBox="0 0 220 174" fill="none" xmlns="http://www.w3.org/2000/svg">
<path fill-rule="evenodd" clip-rule="evenodd" d="M164.457 151.566L172.637 152.872L177.341 148.425L187.922 157.832L192.198 152.274L201.068 149.19L210.973 147.189V154.247L217.263 160.153L218.864 165.822V153.511L217.084 146.216V135.865L210.725 129.431L211.263 117.023L215.36 93.0825L203.758 90.2062L199.234 85.9405L206.062 56.7475L153.849 53.3711L154.208 42.7833L157.449 34.6687L156.967 14.285L122.728 11.2281L124.466 19.0232L124.011 21.2324L126.894 29.2636L119.652 26.0678L8.9076 1.04327L1.11358 4.11401L1.99644 9.67194L4.1898 9.79698L3.73457 14.0488L5.37615 19.6623L15.9429 22.3857L13.4047 26.0678L20.0676 28.2771L21.4884 30.1807L16.5499 31.3062L13.3219 33.4321L10.4388 39.1289L15.4325 40.6018L16.7706 36.7112L17.9294 38.8372L24.2198 38.5037L22.3023 43.8532L21.5988 52.4541L26.6752 61.6524L27.4339 67.6689L30.4412 65.2512L36.304 70.3923H40.9666L35.1728 78.215L45.6292 73.9771L50.7333 70.1838L57.81 72.5182L61.1207 70.3228L68.9286 71.4205L68.6388 51.8844L61.0793 47.7576L63.3969 44.1033L92.7107 40.2822L83.3165 51.2313L88.6137 63.4032L89.4275 68.4748L97.2906 86.413L96.9733 92.2766L98.9873 100.627L100.022 111.618L99.4839 116.315L115.638 127.097L113.513 131.571L116.327 135.489L118.548 132.516L121.183 137.101L130.357 148.884L132.729 162.348L140.937 168.67L143.489 168.934L145.103 166.489L144.469 163.237L137.13 157.749L136.454 151.719L139.061 148.87L143.613 146.147L148.455 138.366H153.077L164.499 151.594L164.457 151.566Z" fill="#F5F5F5" stroke="black" stroke-width="2" stroke-miterlimit="10"/>
</svg>
