<svg width="291" height="190" viewBox="0 0 291 190" fill="none" xmlns="http://www.w3.org/2000/svg">
<path fill-rule="evenodd" clip-rule="evenodd" d="M26.6744 24.0007L30.3024 16.2197L21.8324 25.6264L21.1841 33.0185L15.4041 28.1692L9.293 65.2405L10.0655 74.9669L1.14032 130.227L14.1212 132.867L34.6616 141.245L118.12 187.431L122.893 188.599L128.259 187.279L215.497 155.974L220.339 154.779L227.885 154.07L240.962 153.612L245.432 142.69L258.895 124.502L267.641 112.358L275.766 110.635V105.883L280.484 104.466V100.019L282.332 93.4331H286.057L289.023 89.3202V82.0116L285.174 83.4844L278.029 79.0937L271.228 83.1232L266.537 87.1943L262.565 92.1409L250.991 91.5295L241.252 84.6933L225.774 96.7818L219.111 86.1939L222.215 79.9412L215.483 73.6191L209.634 72.6048L201.233 66.3382L188.556 65.8658L175.547 74.0637L167.85 67.3942L162.553 59.5853L163.077 52.8603L166.07 48.9002L159.007 40.5356L154.096 32.6433L147.737 29.6003L148.482 27.8774L141.378 20.6104L143.323 18.5957L136.577 16.3447L134.273 12.6209L120.879 4.39517L111.898 1.31052L110.546 7.4937H108.56L107.222 8.14676H104.78L101.939 9.66131L96.6965 7.92446L66.9965 50.512L30.1645 25.4319L26.6744 23.9869V24.0007Z" fill="#F5F5F5" stroke="black" stroke-width="2" stroke-miterlimit="10"/>
</svg>
