<svg width="245" height="323" viewBox="0 0 245 323" fill="none" xmlns="http://www.w3.org/2000/svg">
<path fill-rule="evenodd" clip-rule="evenodd" d="M201.288 237.174L212.89 240.051L208.793 263.991L208.255 276.399L214.614 282.833V293.184L216.394 300.479V312.79L218.104 304.717L219.277 302.424L218.339 298.381L219.125 296.464L222.229 293.393L222.836 291.197L222.546 289.683L221.084 287.335L221.856 284.986L223.36 282.458L231.168 271.495L242.935 266.937L243.873 246.373L243.707 235.938L243.224 206.133L242.01 182.957L234.244 185.972L228.85 25.8899L175.175 45.1482L169.781 46.1764L165.036 45.301L86.8471 2.01868L91.289 18.4423L92.2685 25.4314L91.7856 37.0336L89.7302 46.1069L87.4541 54.6661L80.0739 64.8371L74.4042 74.9108L67.162 77.6064L61.3682 84.5955L53.7673 86.5964L49.9048 89.9311L45.4767 95.5863L40.3036 104.951L33.3649 115.067L21.1289 127.002L13.666 133.825L6.29958 137.354L1.37487 141.87L6.42373 147.998L117.168 173.022L124.41 176.218L121.527 168.187L121.982 165.977L120.244 158.182L154.483 161.239L154.966 181.623L151.724 189.738L151.365 200.325L203.578 203.702L196.75 232.895L201.275 237.161L201.288 237.174Z" fill="#F5F5F5" stroke="black" stroke-width="2" stroke-miterlimit="10"/>
</svg>
