<svg width="382" height="113" viewBox="0 0 382 113" fill="none" xmlns="http://www.w3.org/2000/svg">
<path d="M25.44 74.312H55.584V89H5.856V25.64H25.44V74.312ZM73.6478 70.76C77.1038 70.76 79.7598 71.592 81.6158 73.256C83.4718 74.92 84.3998 77.256 84.3998 80.264C84.3998 83.272 83.4718 85.608 81.6158 87.272C79.7598 88.936 77.1038 89.768 73.6478 89.768C70.3198 89.768 67.6958 88.936 65.7758 87.272C63.8558 85.608 62.8958 83.272 62.8958 80.264C62.8958 77.256 63.8558 74.92 65.7758 73.256C67.6958 71.592 70.3198 70.76 73.6478 70.76ZM93.8873 89V25.64H144.959V40.328H113.471V50.6H138.623V64.232H113.471V74.312H146.207V89H93.8873ZM163.929 70.76C167.385 70.76 170.041 71.592 171.897 73.256C173.753 74.92 174.681 77.256 174.681 80.264C174.681 83.272 173.753 85.608 171.897 87.272C170.041 88.936 167.385 89.768 163.929 89.768C160.601 89.768 157.977 88.936 156.057 87.272C154.137 85.608 153.177 83.272 153.177 80.264C153.177 77.256 154.137 74.92 156.057 73.256C157.977 71.592 160.601 70.76 163.929 70.76ZM210.92 24.68C217.512 24.68 223.144 25.992 227.816 28.616C232.552 31.176 236.168 34.888 238.664 39.752C241.224 44.616 242.504 50.472 242.504 57.32C242.504 64.168 241.224 70.024 238.664 74.888C236.168 79.752 232.552 83.496 227.816 86.12C223.144 88.68 217.512 89.96 210.92 89.96C204.392 89.96 198.728 88.68 193.928 86.12C189.192 83.496 185.544 79.752 182.984 74.888C180.424 70.024 179.144 64.168 179.144 57.32C179.144 50.472 180.424 44.616 182.984 39.752C185.544 34.888 189.192 31.176 193.928 28.616C198.728 25.992 204.392 24.68 210.92 24.68ZM210.92 39.656C208.296 39.656 206.12 40.328 204.392 41.672C202.728 42.952 201.448 44.872 200.552 47.432C199.72 49.992 199.304 53.288 199.304 57.32C199.304 61.288 199.72 64.584 200.552 67.208C201.448 69.768 202.728 71.72 204.392 73.064C206.12 74.344 208.296 74.984 210.92 74.984C213.48 74.984 215.624 74.344 217.352 73.064C219.08 71.72 220.36 69.768 221.192 67.208C222.024 64.584 222.44 61.288 222.44 57.32C222.44 53.288 222.024 49.992 221.192 47.432C220.36 44.872 219.08 42.952 217.352 41.672C215.624 40.328 213.48 39.656 210.92 39.656Z" fill="#252422" fill-opacity="0.85"/>
<path d="M266.123 41.6C267.337 41.6 268.357 41.84 269.183 42.32C270.023 42.8 270.663 43.5333 271.103 44.52L270.263 45.16C269.877 44.2267 269.33 43.5533 268.623 43.14C267.93 42.7267 267.07 42.52 266.043 42.52C265.257 42.52 264.59 42.6467 264.043 42.9C263.497 43.14 263.077 43.4667 262.783 43.88C262.503 44.28 262.363 44.7333 262.363 45.24C262.363 45.8533 262.563 46.36 262.963 46.76C263.363 47.16 264.097 47.48 265.163 47.72L267.763 48.28C269.057 48.56 269.963 48.9667 270.483 49.5C271.017 50.02 271.283 50.6933 271.283 51.52C271.283 52.24 271.07 52.88 270.643 53.44C270.23 54 269.657 54.4333 268.923 54.74C268.19 55.0467 267.33 55.2 266.343 55.2C265.397 55.2 264.55 55.0733 263.803 54.82C263.07 54.5533 262.45 54.1867 261.943 53.72C261.437 53.24 261.063 52.6667 260.823 52L261.703 51.32C261.89 51.9467 262.197 52.4867 262.623 52.94C263.063 53.38 263.603 53.7133 264.243 53.94C264.883 54.1667 265.597 54.28 266.383 54.28C267.13 54.28 267.797 54.18 268.383 53.98C268.97 53.7667 269.423 53.46 269.743 53.06C270.077 52.66 270.243 52.1667 270.243 51.58C270.243 51.02 270.043 50.5467 269.643 50.16C269.257 49.7733 268.563 49.48 267.563 49.28L264.843 48.68C264.003 48.4933 263.323 48.2467 262.803 47.94C262.283 47.6333 261.903 47.2667 261.663 46.84C261.437 46.4 261.323 45.9067 261.323 45.36C261.323 44.68 261.517 44.06 261.903 43.5C262.29 42.9267 262.843 42.4667 263.563 42.12C264.283 41.7733 265.137 41.6 266.123 41.6ZM278.606 55.2C277.686 55.2 276.866 54.9933 276.146 54.58C275.426 54.1667 274.859 53.5733 274.446 52.8C274.046 52.0133 273.846 51.08 273.846 50C273.846 48.92 274.046 47.9933 274.446 47.22C274.859 46.4333 275.413 45.8333 276.106 45.42C276.799 45.0067 277.593 44.8 278.486 44.8C279.393 44.8 280.166 45 280.806 45.4C281.446 45.8 281.939 46.36 282.286 47.08C282.633 47.7867 282.806 48.6067 282.806 49.54C282.806 49.66 282.799 49.78 282.786 49.9C282.786 50.0067 282.779 50.1067 282.766 50.2H274.466V49.3H282.326L281.826 49.44C281.813 48.2933 281.506 47.38 280.906 46.7C280.319 46.02 279.506 45.68 278.466 45.68C277.746 45.68 277.113 45.8533 276.566 46.2C276.019 46.5333 275.593 47.0267 275.286 47.68C274.979 48.32 274.826 49.0933 274.826 50C274.826 50.8933 274.979 51.6667 275.286 52.32C275.606 52.9733 276.046 53.4733 276.606 53.82C277.179 54.1533 277.839 54.32 278.586 54.32C279.359 54.32 280.019 54.1533 280.566 53.82C281.126 53.4867 281.559 53.0267 281.866 52.44L282.666 52.9C282.426 53.38 282.106 53.7933 281.706 54.14C281.306 54.4733 280.846 54.7333 280.326 54.92C279.806 55.1067 279.233 55.2 278.606 55.2ZM286.059 55V45H286.959L287.019 47.08C287.312 46.36 287.786 45.8 288.439 45.4C289.106 45 289.846 44.8 290.659 44.8C291.526 44.8 292.272 45.0067 292.899 45.42C293.539 45.8333 293.979 46.44 294.219 47.24C294.392 46.7333 294.672 46.3 295.059 45.94C295.446 45.5667 295.899 45.28 296.419 45.08C296.939 44.88 297.479 44.78 298.039 44.78C298.732 44.78 299.359 44.92 299.919 45.2C300.492 45.4667 300.946 45.88 301.279 46.44C301.626 46.9867 301.799 47.6733 301.799 48.5V54.98H300.799V48.6C300.799 47.6133 300.532 46.88 299.999 46.4C299.479 45.9067 298.786 45.66 297.919 45.66C297.292 45.66 296.712 45.8133 296.179 46.12C295.646 46.4133 295.219 46.8333 294.899 47.38C294.592 47.9133 294.439 48.5333 294.439 49.24V55H293.439V48.62C293.439 47.6333 293.172 46.9 292.639 46.42C292.106 45.9267 291.412 45.68 290.559 45.68C289.959 45.68 289.392 45.8267 288.859 46.12C288.326 46.4133 287.892 46.8333 287.559 47.38C287.226 47.9267 287.059 48.58 287.059 49.34V55H286.059ZM306.158 43.06C305.905 43.06 305.698 42.9867 305.538 42.84C305.391 42.68 305.318 42.4733 305.318 42.22C305.318 41.9667 305.391 41.7667 305.538 41.62C305.698 41.46 305.905 41.38 306.158 41.38C306.411 41.38 306.611 41.46 306.758 41.62C306.918 41.7667 306.998 41.9667 306.998 42.22C306.998 42.4733 306.918 42.68 306.758 42.84C306.611 42.9867 306.411 43.06 306.158 43.06ZM306.658 45V55H305.658V45H306.658ZM311.529 40.4V52.64C311.529 53.2533 311.636 53.6867 311.849 53.94C312.062 54.1933 312.396 54.32 312.849 54.32C313.129 54.32 313.349 54.3 313.509 54.26C313.682 54.22 313.882 54.1533 314.109 54.06L313.969 54.94C313.796 55.02 313.596 55.08 313.369 55.12C313.156 55.1733 312.916 55.2 312.649 55.2C311.942 55.2 311.409 55 311.049 54.6C310.702 54.1867 310.529 53.5467 310.529 52.68V40.4H311.529ZM317.417 40.4V52.64C317.417 53.2533 317.524 53.6867 317.737 53.94C317.951 54.1933 318.284 54.32 318.737 54.32C319.017 54.32 319.237 54.3 319.397 54.26C319.571 54.22 319.771 54.1533 319.997 54.06L319.857 54.94C319.684 55.02 319.484 55.08 319.257 55.12C319.044 55.1733 318.804 55.2 318.537 55.2C317.831 55.2 317.297 55 316.937 54.6C316.591 54.1867 316.417 53.5467 316.417 52.68V40.4H317.417ZM326.387 55.2C325.467 55.2 324.647 54.9933 323.927 54.58C323.207 54.1667 322.641 53.5733 322.227 52.8C321.827 52.0133 321.627 51.08 321.627 50C321.627 48.92 321.827 47.9933 322.227 47.22C322.641 46.4333 323.194 45.8333 323.887 45.42C324.581 45.0067 325.374 44.8 326.267 44.8C327.174 44.8 327.947 45 328.587 45.4C329.227 45.8 329.721 46.36 330.067 47.08C330.414 47.7867 330.587 48.6067 330.587 49.54C330.587 49.66 330.581 49.78 330.567 49.9C330.567 50.0067 330.561 50.1067 330.547 50.2H322.247V49.3H330.107L329.607 49.44C329.594 48.2933 329.287 47.38 328.687 46.7C328.101 46.02 327.287 45.68 326.247 45.68C325.527 45.68 324.894 45.8533 324.347 46.2C323.801 46.5333 323.374 47.0267 323.067 47.68C322.761 48.32 322.607 49.0933 322.607 50C322.607 50.8933 322.761 51.6667 323.067 52.32C323.387 52.9733 323.827 53.4733 324.387 53.82C324.961 54.1533 325.621 54.32 326.367 54.32C327.141 54.32 327.801 54.1533 328.347 53.82C328.907 53.4867 329.341 53.0267 329.647 52.44L330.447 52.9C330.207 53.38 329.887 53.7933 329.487 54.14C329.087 54.4733 328.627 54.7333 328.107 54.92C327.587 55.1067 327.014 55.2 326.387 55.2ZM333.84 55V45H334.68L334.8 47.1C335.053 46.3933 335.46 45.8333 336.02 45.42C336.58 45.0067 337.253 44.8 338.04 44.8C338.307 44.8 338.547 44.8267 338.76 44.88C338.973 44.9333 339.147 45.02 339.28 45.14L339.06 46.02C338.913 45.9267 338.753 45.8533 338.58 45.8C338.407 45.7467 338.147 45.72 337.8 45.72C337.293 45.72 336.813 45.88 336.36 46.2C335.907 46.5067 335.54 46.94 335.26 47.5C334.98 48.0467 334.84 48.68 334.84 49.4V55H333.84ZM345.41 44.8C346.343 44.8 347.163 45.0067 347.87 45.42C348.59 45.8333 349.15 46.4333 349.55 47.22C349.963 47.9933 350.17 48.92 350.17 50C350.17 51.08 349.963 52.0133 349.55 52.8C349.15 53.5733 348.59 54.1667 347.87 54.58C347.163 54.9933 346.343 55.2 345.41 55.2C344.477 55.2 343.65 54.9933 342.93 54.58C342.223 54.1667 341.663 53.5733 341.25 52.8C340.85 52.0133 340.65 51.08 340.65 50C340.65 48.92 340.85 47.9933 341.25 47.22C341.663 46.4333 342.223 45.8333 342.93 45.42C343.65 45.0067 344.477 44.8 345.41 44.8ZM345.41 45.66C344.65 45.66 343.99 45.8333 343.43 46.18C342.87 46.5267 342.43 47.0267 342.11 47.68C341.803 48.32 341.65 49.0933 341.65 50C341.65 50.8933 341.803 51.6667 342.11 52.32C342.43 52.9733 342.87 53.4733 343.43 53.82C343.99 54.1667 344.65 54.34 345.41 54.34C346.17 54.34 346.83 54.1667 347.39 53.82C347.95 53.4733 348.383 52.9733 348.69 52.32C349.01 51.6667 349.17 50.8933 349.17 50C349.17 49.0933 349.01 48.32 348.69 47.68C348.383 47.0267 347.95 46.5267 347.39 46.18C346.83 45.8333 346.17 45.66 345.41 45.66ZM363.999 55.2C363.132 55.2 362.352 54.9933 361.659 54.58C360.965 54.1667 360.419 53.5733 360.019 52.8C359.632 52.0133 359.439 51.08 359.439 50C359.439 48.8933 359.645 47.9533 360.059 47.18C360.472 46.4067 361.032 45.82 361.739 45.42C362.445 45.0067 363.225 44.8 364.079 44.8C365.012 44.8 365.805 45.0467 366.459 45.54C367.125 46.0333 367.572 46.72 367.799 47.6L367.679 47.68V40.4H368.679V55H367.779L367.719 52.22L367.839 52.18C367.719 52.82 367.472 53.3667 367.099 53.82C366.739 54.2733 366.285 54.62 365.739 54.86C365.205 55.0867 364.625 55.2 363.999 55.2ZM364.119 54.32C364.825 54.32 365.445 54.1467 365.979 53.8C366.512 53.44 366.925 52.9267 367.219 52.26C367.525 51.5933 367.679 50.8133 367.679 49.92C367.679 49.04 367.525 48.2867 367.219 47.66C366.925 47.02 366.512 46.5333 365.979 46.2C365.459 45.8533 364.852 45.68 364.159 45.68C363.012 45.68 362.105 46.0667 361.439 46.84C360.772 47.6133 360.439 48.6667 360.439 50C360.439 51.3333 360.765 52.3867 361.419 53.16C362.085 53.9333 362.985 54.32 364.119 54.32ZM376.727 55.2C375.807 55.2 374.987 54.9933 374.267 54.58C373.547 54.1667 372.981 53.5733 372.567 52.8C372.167 52.0133 371.967 51.08 371.967 50C371.967 48.92 372.167 47.9933 372.567 47.22C372.981 46.4333 373.534 45.8333 374.227 45.42C374.921 45.0067 375.714 44.8 376.607 44.8C377.514 44.8 378.287 45 378.927 45.4C379.567 45.8 380.061 46.36 380.407 47.08C380.754 47.7867 380.927 48.6067 380.927 49.54C380.927 49.66 380.921 49.78 380.907 49.9C380.907 50.0067 380.901 50.1067 380.887 50.2H372.587V49.3H380.447L379.947 49.44C379.934 48.2933 379.627 47.38 379.027 46.7C378.441 46.02 377.627 45.68 376.587 45.68C375.867 45.68 375.234 45.8533 374.687 46.2C374.141 46.5333 373.714 47.0267 373.407 47.68C373.101 48.32 372.947 49.0933 372.947 50C372.947 50.8933 373.101 51.6667 373.407 52.32C373.727 52.9733 374.167 53.4733 374.727 53.82C375.301 54.1533 375.961 54.32 376.707 54.32C377.481 54.32 378.141 54.1533 378.687 53.82C379.247 53.4867 379.681 53.0267 379.987 52.44L380.787 52.9C380.547 53.38 380.227 53.7933 379.827 54.14C379.427 54.4733 378.967 54.7333 378.447 54.92C377.927 55.1067 377.354 55.2 376.727 55.2ZM260.046 64.8V78H259.046V64.8H260.046ZM264.243 78V68H265.143L265.223 70.5L265.063 70.36C265.25 69.8133 265.53 69.3533 265.903 68.98C266.277 68.5933 266.723 68.3 267.243 68.1C267.763 67.9 268.323 67.8 268.923 67.8C269.67 67.8 270.33 67.94 270.903 68.22C271.477 68.5 271.923 68.9133 272.243 69.46C272.577 70.0067 272.743 70.6933 272.743 71.52V78H271.743V71.84C271.743 70.7467 271.47 69.9467 270.923 69.44C270.39 68.9333 269.69 68.68 268.823 68.68C268.197 68.68 267.61 68.8267 267.063 69.12C266.53 69.4 266.09 69.8133 265.743 70.36C265.41 70.9067 265.243 71.5733 265.243 72.36V78H264.243ZM283.222 68H284.282L280.102 78H279.102L274.922 68H276.042L279.622 76.96L283.222 68ZM290.744 78.2C289.824 78.2 289.004 77.9933 288.284 77.58C287.564 77.1667 286.998 76.5733 286.584 75.8C286.184 75.0133 285.984 74.08 285.984 73C285.984 71.92 286.184 70.9933 286.584 70.22C286.998 69.4333 287.551 68.8333 288.244 68.42C288.938 68.0067 289.731 67.8 290.624 67.8C291.531 67.8 292.304 68 292.944 68.4C293.584 68.8 294.078 69.36 294.424 70.08C294.771 70.7867 294.944 71.6067 294.944 72.54C294.944 72.66 294.938 72.78 294.924 72.9C294.924 73.0067 294.918 73.1067 294.904 73.2H286.604V72.3H294.464L293.964 72.44C293.951 71.2933 293.644 70.38 293.044 69.7C292.458 69.02 291.644 68.68 290.604 68.68C289.884 68.68 289.251 68.8533 288.704 69.2C288.158 69.5333 287.731 70.0267 287.424 70.68C287.118 71.32 286.964 72.0933 286.964 73C286.964 73.8933 287.118 74.6667 287.424 75.32C287.744 75.9733 288.184 76.4733 288.744 76.82C289.318 77.1533 289.978 77.32 290.724 77.32C291.498 77.32 292.158 77.1533 292.704 76.82C293.264 76.4867 293.698 76.0267 294.004 75.44L294.804 75.9C294.564 76.38 294.244 76.7933 293.844 77.14C293.444 77.4733 292.984 77.7333 292.464 77.92C291.944 78.1067 291.371 78.2 290.744 78.2ZM301.577 78.2C300.564 78.2 299.664 77.9933 298.877 77.58C298.104 77.1667 297.557 76.5733 297.237 75.8L298.097 75.22C298.337 75.8867 298.764 76.4067 299.377 76.78C300.004 77.14 300.764 77.32 301.657 77.32C302.537 77.32 303.224 77.1467 303.717 76.8C304.224 76.4533 304.477 75.9933 304.477 75.42C304.477 75.0333 304.351 74.7 304.097 74.42C303.857 74.1267 303.397 73.9067 302.717 73.76L300.377 73.26C299.417 73.06 298.731 72.74 298.317 72.3C297.917 71.8467 297.717 71.3 297.717 70.66C297.717 70.1267 297.877 69.6467 298.197 69.22C298.517 68.7933 298.957 68.4533 299.517 68.2C300.091 67.9333 300.757 67.8 301.517 67.8C302.517 67.8 303.344 68 303.997 68.4C304.651 68.7867 305.111 69.3733 305.377 70.16L304.537 70.7C304.337 69.9933 303.964 69.48 303.417 69.16C302.884 68.84 302.251 68.68 301.517 68.68C300.957 68.68 300.464 68.7667 300.037 68.94C299.624 69.1 299.297 69.3267 299.057 69.62C298.831 69.9 298.717 70.2267 298.717 70.6C298.717 70.9867 298.851 71.34 299.117 71.66C299.384 71.9667 299.857 72.1933 300.537 72.34L302.937 72.86C303.884 73.06 304.544 73.3667 304.917 73.78C305.291 74.18 305.477 74.68 305.477 75.28C305.477 75.88 305.317 76.4 304.997 76.84C304.677 77.28 304.224 77.62 303.637 77.86C303.051 78.0867 302.364 78.2 301.577 78.2ZM310.335 65.22V75.36C310.335 75.9867 310.482 76.4667 310.775 76.8C311.082 77.12 311.522 77.28 312.095 77.28C312.469 77.28 312.795 77.22 313.075 77.1C313.369 76.9667 313.629 76.78 313.855 76.54L314.235 77.36C313.982 77.6133 313.662 77.82 313.275 77.98C312.889 78.1267 312.455 78.2 311.975 78.2C311.455 78.2 310.995 78.1067 310.595 77.92C310.195 77.72 309.882 77.42 309.655 77.02C309.442 76.62 309.335 76.1133 309.335 75.5V65.5L310.335 65.22ZM314.075 68V68.86H307.335V68H314.075ZM317.114 66.06C316.861 66.06 316.654 65.9867 316.494 65.84C316.348 65.68 316.274 65.4733 316.274 65.22C316.274 64.9667 316.348 64.7667 316.494 64.62C316.654 64.46 316.861 64.38 317.114 64.38C317.368 64.38 317.568 64.46 317.714 64.62C317.874 64.7667 317.954 64.9667 317.954 65.22C317.954 65.4733 317.874 65.68 317.714 65.84C317.568 65.9867 317.368 66.06 317.114 66.06ZM317.614 68V78H316.614V68H317.614ZM329.845 66.16L330.085 67.04C330.072 67.04 330.058 67.04 330.045 67.04C330.032 67.04 330.012 67.04 329.985 67.04C329.332 67.04 328.825 67.2133 328.465 67.56C328.118 67.8933 327.945 68.3667 327.945 68.98L327.305 68.66C327.305 68.1533 327.412 67.7133 327.625 67.34C327.838 66.9667 328.132 66.68 328.505 66.48C328.878 66.2667 329.298 66.16 329.765 66.16C329.792 66.16 329.805 66.16 329.805 66.16C329.818 66.16 329.832 66.16 329.845 66.16ZM326.685 76.98C327.672 76.98 328.445 77.1867 329.005 77.6C329.565 78.0133 329.845 78.5667 329.845 79.26C329.845 79.8733 329.638 80.4067 329.225 80.86C328.825 81.3133 328.272 81.6667 327.565 81.92C326.858 82.1733 326.052 82.3 325.145 82.3C323.638 82.3 322.485 82.04 321.685 81.52C320.885 81.0133 320.485 80.3733 320.485 79.6C320.485 79.04 320.685 78.5533 321.085 78.14C321.498 77.7267 322.098 77.48 322.885 77.4L322.805 77.58C322.378 77.46 321.998 77.26 321.665 76.98C321.345 76.7 321.185 76.3 321.185 75.78C321.185 75.22 321.392 74.7667 321.805 74.42C322.232 74.06 322.792 73.8533 323.485 73.8L324.545 74.16H324.125C323.512 74.2 323.018 74.3533 322.645 74.62C322.285 74.8733 322.105 75.2067 322.105 75.62C322.105 76.0733 322.278 76.4133 322.625 76.64C322.985 76.8667 323.438 76.98 323.985 76.98H326.685ZM325.145 81.46C325.932 81.46 326.605 81.3667 327.165 81.18C327.725 80.9933 328.152 80.74 328.445 80.42C328.752 80.1133 328.905 79.7667 328.905 79.38C328.905 78.9133 328.698 78.54 328.285 78.26C327.885 77.98 327.272 77.84 326.445 77.84H323.605C322.978 77.84 322.458 77.9867 322.045 78.28C321.632 78.5733 321.425 78.9667 321.425 79.46C321.425 80.06 321.752 80.54 322.405 80.9C323.072 81.2733 323.985 81.46 325.145 81.46ZM325.005 67.8C325.792 67.8 326.485 67.94 327.085 68.22C327.698 68.4867 328.172 68.8667 328.505 69.36C328.838 69.84 329.005 70.4067 329.005 71.06C329.005 71.7 328.838 72.2733 328.505 72.78C328.172 73.2733 327.698 73.66 327.085 73.94C326.485 74.2067 325.792 74.34 325.005 74.34C323.738 74.34 322.745 74.04 322.025 73.44C321.318 72.8267 320.965 72.0333 320.965 71.06C320.965 70.4067 321.132 69.84 321.465 69.36C321.812 68.8667 322.285 68.4867 322.885 68.22C323.498 67.94 324.205 67.8 325.005 67.8ZM325.005 68.62C324.125 68.62 323.405 68.8467 322.845 69.3C322.285 69.74 322.005 70.3267 322.005 71.06C322.005 71.7933 322.285 72.3867 322.845 72.84C323.405 73.2933 324.125 73.52 325.005 73.52C325.885 73.52 326.598 73.2933 327.145 72.84C327.705 72.3867 327.985 71.7933 327.985 71.06C327.985 70.3267 327.705 69.74 327.145 69.3C326.598 68.8467 325.885 68.62 325.005 68.62ZM338.378 71.42C338.378 70.5533 338.145 69.88 337.678 69.4C337.211 68.92 336.545 68.68 335.678 68.68C334.918 68.68 334.265 68.8467 333.718 69.18C333.171 69.5 332.765 70.04 332.498 70.8L331.678 70.28C331.971 69.4933 332.458 68.8867 333.138 68.46C333.831 68.02 334.685 67.8 335.698 67.8C336.431 67.8 337.071 67.9333 337.618 68.2C338.178 68.4533 338.611 68.8333 338.918 69.34C339.225 69.8467 339.378 70.48 339.378 71.24V76.24C339.378 76.9467 339.698 77.3 340.338 77.3C340.618 77.3 340.858 77.2533 341.058 77.16L340.998 77.96C340.771 78.08 340.478 78.14 340.118 78.14C339.811 78.14 339.525 78.08 339.258 77.96C338.991 77.84 338.771 77.64 338.598 77.36C338.438 77.08 338.358 76.7 338.358 76.22V75.68L338.638 75.66C338.518 76.2333 338.251 76.7133 337.838 77.1C337.438 77.4733 336.971 77.7533 336.438 77.94C335.905 78.1133 335.371 78.2 334.838 78.2C334.211 78.2 333.651 78.1 333.158 77.9C332.665 77.7 332.278 77.4133 331.998 77.04C331.718 76.6533 331.578 76.18 331.578 75.62C331.578 74.8733 331.825 74.2733 332.318 73.82C332.825 73.3533 333.531 73.0333 334.438 72.86L338.578 72.04V72.88L334.938 73.6C334.151 73.76 333.565 73.9933 333.178 74.3C332.791 74.6067 332.598 75.0267 332.598 75.56C332.598 76.1067 332.805 76.54 333.218 76.86C333.631 77.1667 334.218 77.32 334.978 77.32C335.365 77.32 335.758 77.2667 336.158 77.16C336.558 77.0533 336.925 76.8867 337.258 76.66C337.605 76.42 337.878 76.1267 338.078 75.78C338.278 75.42 338.378 74.9867 338.378 74.48V71.42ZM347.557 67.8C348.237 67.8 348.844 67.9067 349.377 68.12C349.911 68.3333 350.364 68.64 350.737 69.04C351.111 69.44 351.397 69.9267 351.597 70.5L350.657 70.94C350.444 70.22 350.071 69.6667 349.537 69.28C349.017 68.88 348.351 68.68 347.537 68.68C346.804 68.68 346.157 68.8533 345.597 69.2C345.037 69.5333 344.604 70.0267 344.297 70.68C343.991 71.32 343.837 72.0933 343.837 73C343.837 73.8933 343.991 74.6667 344.297 75.32C344.604 75.9733 345.031 76.4733 345.577 76.82C346.124 77.1533 346.771 77.32 347.517 77.32C348.077 77.32 348.584 77.2267 349.037 77.04C349.504 76.8533 349.884 76.58 350.177 76.22C350.484 75.86 350.684 75.4333 350.777 74.94L351.697 75.26C351.524 75.8733 351.237 76.4 350.837 76.84C350.451 77.28 349.977 77.62 349.417 77.86C348.857 78.0867 348.231 78.2 347.537 78.2C346.631 78.2 345.817 77.9933 345.097 77.58C344.391 77.1667 343.837 76.5733 343.437 75.8C343.037 75.0133 342.837 74.08 342.837 73C342.837 71.92 343.037 70.9933 343.437 70.22C343.851 69.4333 344.411 68.8333 345.117 68.42C345.837 68.0067 346.651 67.8 347.557 67.8ZM355.277 66.06C355.024 66.06 354.817 65.9867 354.657 65.84C354.51 65.68 354.437 65.4733 354.437 65.22C354.437 64.9667 354.51 64.7667 354.657 64.62C354.817 64.46 355.024 64.38 355.277 64.38C355.53 64.38 355.73 64.46 355.877 64.62C356.037 64.7667 356.117 64.9667 356.117 65.22C356.117 65.4733 356.037 65.68 355.877 65.84C355.73 65.9867 355.53 66.06 355.277 66.06ZM355.777 68V78H354.777V68H355.777ZM363.808 67.8C364.741 67.8 365.561 68.0067 366.268 68.42C366.988 68.8333 367.548 69.4333 367.948 70.22C368.361 70.9933 368.568 71.92 368.568 73C368.568 74.08 368.361 75.0133 367.948 75.8C367.548 76.5733 366.988 77.1667 366.268 77.58C365.561 77.9933 364.741 78.2 363.808 78.2C362.874 78.2 362.048 77.9933 361.328 77.58C360.621 77.1667 360.061 76.5733 359.648 75.8C359.248 75.0133 359.048 74.08 359.048 73C359.048 71.92 359.248 70.9933 359.648 70.22C360.061 69.4333 360.621 68.8333 361.328 68.42C362.048 68.0067 362.874 67.8 363.808 67.8ZM363.808 68.66C363.048 68.66 362.388 68.8333 361.828 69.18C361.268 69.5267 360.828 70.0267 360.508 70.68C360.201 71.32 360.048 72.0933 360.048 73C360.048 73.8933 360.201 74.6667 360.508 75.32C360.828 75.9733 361.268 76.4733 361.828 76.82C362.388 77.1667 363.048 77.34 363.808 77.34C364.568 77.34 365.228 77.1667 365.788 76.82C366.348 76.4733 366.781 75.9733 367.088 75.32C367.408 74.6667 367.568 73.8933 367.568 73C367.568 72.0933 367.408 71.32 367.088 70.68C366.781 70.0267 366.348 69.5267 365.788 69.18C365.228 68.8333 364.568 68.66 363.808 68.66ZM364.828 63.22H365.928L364.048 66.38H363.228L364.828 63.22ZM371.827 78V68H372.727L372.807 70.5L372.647 70.36C372.834 69.8133 373.114 69.3533 373.487 68.98C373.86 68.5933 374.307 68.3 374.827 68.1C375.347 67.9 375.907 67.8 376.507 67.8C377.254 67.8 377.914 67.94 378.487 68.22C379.06 68.5 379.507 68.9133 379.827 69.46C380.16 70.0067 380.327 70.6933 380.327 71.52V78H379.327V71.84C379.327 70.7467 379.054 69.9467 378.507 69.44C377.974 68.9333 377.274 68.68 376.407 68.68C375.78 68.68 375.194 68.8267 374.647 69.12C374.114 69.4 373.674 69.8133 373.327 70.36C372.994 70.9067 372.827 71.5733 372.827 72.36V78H371.827Z" fill="#252422" fill-opacity="0.85"/>
</svg>
