<svg width="192" height="104" viewBox="0 0 192 104" fill="none" xmlns="http://www.w3.org/2000/svg">
<g clip-path="url(#clip0_390_5)">
<path d="M53.4058 69.319C53.4058 69.1924 53.5061 69.0912 53.6315 69.0912H56.49C57.9443 69.0912 59.1478 70.2936 59.1478 71.7365C59.1478 73.2173 57.9443 74.4325 56.5025 74.4325H55.2613V77.2424C55.2613 77.3562 55.1485 77.4702 55.0356 77.4702H53.6315C53.5061 77.4702 53.4058 77.3562 53.4058 77.2424V69.319ZM56.3897 72.6858C56.9036 72.6858 57.33 72.2807 57.33 71.7365C57.33 71.2302 56.9036 70.8505 56.3897 70.8505H55.2613V72.6858H56.3897Z" fill="white"/>
<path d="M65.5953 68.977C67.9649 68.977 69.8706 70.9008 69.8706 73.3056C69.8706 75.6979 67.9775 77.6091 65.5953 77.6091C63.2259 77.6091 61.3326 75.6979 61.3326 73.3056C61.3452 70.9008 63.2259 68.977 65.5953 68.977ZM65.5953 75.6725C66.8993 75.6725 67.9649 74.5967 67.9649 73.293C67.9649 71.9766 66.8993 70.8882 65.5953 70.8882C64.304 70.8882 63.2383 71.9766 63.2383 73.293C63.2383 74.5967 64.304 75.6725 65.5953 75.6725Z" fill="white"/>
<path d="M72.5884 69.319C72.5884 69.1924 72.6887 69.0912 72.8141 69.0912H74.2309C74.3563 69.0912 74.4566 69.205 74.4566 69.319V75.7108H77.2775C77.4027 75.7108 77.5032 75.8248 77.5032 75.9387V77.2424C77.5032 77.3562 77.4027 77.4702 77.2775 77.4702H72.8141C72.6887 77.4702 72.5884 77.3562 72.5884 77.2424V69.319Z" fill="white"/>
<path d="M80.6019 69.319C80.6019 69.1924 80.7022 69.0912 80.8276 69.0912H82.2444C82.3572 69.0912 82.4701 69.205 82.4701 69.319V77.2424C82.4701 77.3562 82.3572 77.4702 82.2444 77.4702H80.8276C80.7022 77.4702 80.6019 77.3562 80.6019 77.2424V69.319Z" fill="white"/>
<path d="M87.5335 70.8505H85.841C85.7157 70.8505 85.6155 70.7366 85.6155 70.6227V69.319C85.6155 69.1924 85.7157 69.0912 85.841 69.0912H91.1068C91.2322 69.0912 91.3325 69.205 91.3325 69.319V70.6227C91.3325 70.7493 91.2446 70.8505 91.1068 70.8505H89.4143V77.2424C89.4143 77.3562 89.3014 77.4702 89.1886 77.4702H87.7592C87.6464 77.4702 87.5335 77.3562 87.5335 77.2424V70.8505Z" fill="white"/>
<path d="M94.4077 69.3188C94.4077 69.1922 94.4955 69.0909 94.6334 69.0909H99.548C99.6734 69.0909 99.7737 69.2049 99.7737 69.3188V70.6225C99.7737 70.7363 99.6734 70.8503 99.548 70.8503H96.2632V72.3313H98.9713C99.0841 72.3313 99.1969 72.4451 99.1969 72.559V73.8627C99.1969 73.9893 99.0967 74.0905 98.9713 74.0905H96.2632V75.7107H99.548C99.6734 75.7107 99.7737 75.812 99.7737 75.9386V77.2421C99.7737 77.3561 99.6734 77.47 99.548 77.47H94.6334C94.508 77.47 94.4077 77.3687 94.4077 77.2421V69.3188ZM95.9875 68.2429L95.7367 67.7367C95.6865 67.6354 95.7492 67.5594 95.8118 67.5088L97.8304 66.2557C97.9057 66.2051 98.0811 66.1798 98.1438 66.2938L98.545 67.0026C98.6328 67.1797 98.5702 67.2936 98.4699 67.3569L96.3134 68.3316C96.1504 68.4455 96.0375 68.3695 95.9875 68.2429Z" fill="white"/>
<path d="M106.678 68.977C107.869 68.977 108.747 69.3439 109.549 70.0908C109.662 70.1793 109.662 70.3312 109.562 70.4199L108.634 71.3944C108.559 71.4831 108.421 71.4831 108.346 71.3944C107.907 71.002 107.33 70.7869 106.741 70.7869C105.399 70.7869 104.421 71.9133 104.421 73.2551C104.421 74.584 105.412 75.6853 106.753 75.6853C107.305 75.6853 107.919 75.4828 108.346 75.1156C108.433 75.0397 108.584 75.0397 108.659 75.1283L109.587 76.1281C109.675 76.2168 109.662 76.3687 109.574 76.4572C108.772 77.242 107.756 77.6217 106.691 77.6217C104.321 77.6217 102.415 75.7105 102.415 73.3184C102.403 70.9008 104.309 68.977 106.678 68.977Z" fill="white"/>
<path d="M112.633 69.1921C112.633 69.0781 112.745 68.977 112.858 68.977H113.159L117.886 73.5715H117.898V69.3187C117.898 69.1921 117.999 69.0908 118.124 69.0908H119.541C119.666 69.0908 119.766 69.2047 119.766 69.3187V77.3812C119.766 77.4952 119.654 77.5965 119.541 77.5965H119.353C119.315 77.5965 119.227 77.5584 119.202 77.5332L114.513 72.774H114.501V77.242C114.501 77.3559 114.4 77.4699 114.275 77.4699H112.858C112.745 77.4699 112.633 77.3559 112.633 77.242V69.1921Z" fill="white"/>
<path d="M123.479 69.319C123.479 69.1924 123.592 69.0912 123.705 69.0912H125.134C125.259 69.0912 125.359 69.205 125.359 69.319V77.2424C125.359 77.3562 125.247 77.4702 125.134 77.4702H123.705C123.592 77.4702 123.479 77.3562 123.479 77.2424V69.319Z" fill="white"/>
<path d="M132.543 68.977C133.721 68.977 134.611 69.3439 135.414 70.0908C135.526 70.1793 135.526 70.3312 135.426 70.4199L134.498 71.3944C134.411 71.4831 134.285 71.4831 134.198 71.3944C133.759 71.002 133.182 70.7869 132.593 70.7869C131.251 70.7869 130.273 71.9133 130.273 73.2551C130.273 74.584 131.276 75.6853 132.618 75.6853C133.169 75.6853 133.784 75.4828 134.21 75.1156C134.298 75.0397 134.448 75.0397 134.523 75.1283L135.451 76.1281C135.539 76.2168 135.526 76.3687 135.439 76.4572C134.636 77.242 133.608 77.6217 132.555 77.6217C130.186 77.6217 128.267 75.7105 128.267 73.3184C128.255 70.9008 130.16 68.977 132.543 68.977Z" fill="white"/>
<path d="M141.922 68.977C144.292 68.977 146.198 70.9008 146.198 73.3056C146.198 75.6979 144.304 77.6091 141.922 77.6091C139.553 77.6091 137.66 75.6979 137.66 73.3056C137.672 70.9008 139.553 68.977 141.922 68.977ZM141.922 75.6725C143.226 75.6725 144.292 74.5967 144.292 73.293C144.292 71.9766 143.226 70.8882 141.922 70.8882C140.631 70.8882 139.565 71.9766 139.565 73.293C139.565 74.5967 140.644 75.6725 141.922 75.6725Z" fill="white"/>
<path d="M57.081 82.748C58.084 82.748 59.1747 83.1657 59.9771 83.8745C60.0774 83.9504 60.0899 84.1024 60.0022 84.2036L59.0619 85.2035C58.9741 85.2922 58.8362 85.2922 58.7485 85.2163C58.2971 84.7985 57.7706 84.6466 57.1938 84.6466C55.9024 84.6466 54.8619 85.7478 54.8619 87.0642C54.8619 88.3678 55.915 89.4437 57.2064 89.4437C57.5449 89.4437 57.9085 89.3931 58.2594 89.2538V88.545H57.5072C57.3819 88.545 57.2816 88.4438 57.2816 88.3299V87.1527C57.2816 87.0262 57.3819 86.925 57.5072 86.925H59.8894C60.0148 86.925 60.1025 87.0388 60.1025 87.1527L60.115 90.3803C60.115 90.4436 60.0648 90.5321 60.0148 90.5702C60.0148 90.5702 58.7987 91.3423 57.0685 91.3423C54.7114 91.3423 52.8058 89.4563 52.8058 87.0642C52.8183 84.6593 54.724 82.748 57.081 82.748Z" fill="white"/>
<path d="M63.9645 83.0771C63.9645 82.9505 64.0648 82.8492 64.1902 82.8492H67.7382C69.1549 82.8492 70.3209 84.0137 70.3209 85.4312C70.3209 86.5325 69.6062 87.4185 68.5657 87.8362L70.1829 90.8739C70.2708 91.0258 70.1829 91.2156 69.9824 91.2156H68.4027C68.3149 91.2156 68.2398 91.1651 68.2146 91.1018L66.6349 87.9247H65.82V90.9752C65.82 91.0891 65.7071 91.2029 65.5943 91.2029H64.1776C64.0522 91.2029 63.952 91.0891 63.952 90.9752V83.0771H63.9645ZM67.5877 86.4313C68.0767 86.4313 68.4904 85.9756 68.4904 85.4693C68.4904 84.9629 68.0767 84.5579 67.5877 84.5579H65.8325V86.4313H67.5877Z" fill="white"/>
<path d="M72.7176 90.9245L76.4287 82.8619C76.4662 82.7859 76.5415 82.7354 76.6293 82.7354H76.7547C76.8424 82.7354 76.9176 82.7987 76.9552 82.8619L80.6663 90.9245C80.7415 91.0764 80.6412 91.241 80.4657 91.241H79.1492C78.9361 91.241 78.8358 91.1651 78.7355 90.9372L78.3093 89.9879H75.0871L74.6483 90.9499C74.5856 91.0891 74.4603 91.241 74.222 91.241H72.9182C72.7426 91.2284 72.6423 91.0764 72.7176 90.9245ZM77.5946 88.3551L76.6919 86.3806H76.6793L75.7892 88.3551H77.5946Z" fill="white"/>
<path d="M83.2731 82.9505C83.2731 82.8366 83.3859 82.7354 83.4987 82.7354H83.7996L88.5387 87.3298H88.5513V83.0771C88.5513 82.9632 88.639 82.8492 88.777 82.8492H90.1936C90.3065 82.8492 90.4193 82.9632 90.4193 83.0771V91.1397C90.4193 91.2536 90.319 91.3549 90.1936 91.3549H90.0056C89.968 91.3549 89.8802 91.3169 89.8553 91.2916L85.1662 86.5325H85.1536V91.0004C85.1536 91.1144 85.0659 91.2284 84.928 91.2284H83.5113C83.3985 91.2284 83.2856 91.1144 83.2856 91.0004L83.2731 82.9505Z" fill="white"/>
<path d="M97.7138 82.7354C98.9048 82.7354 99.7824 83.1024 100.585 83.8491C100.698 83.9504 100.698 84.0896 100.597 84.1783L99.6696 85.1528C99.5944 85.2415 99.4564 85.2415 99.3687 85.1528C98.9299 84.7604 98.3532 84.5453 97.7639 84.5453C96.4224 84.5453 95.4445 85.6718 95.4445 87.0135C95.4445 88.3425 96.435 89.4437 97.7764 89.4437C98.3406 89.4437 98.9425 89.2412 99.3687 88.8741C99.4564 88.7982 99.6069 88.7982 99.6821 88.8867L100.61 89.874C100.698 89.9627 100.685 90.1145 100.597 90.2031C99.795 90.9878 98.7669 91.3676 97.7138 91.3676C95.3442 91.3676 93.4386 89.4563 93.4386 87.064C93.426 84.6593 95.3317 82.7354 97.7138 82.7354Z" fill="white"/>
<path d="M107.18 82.7354C109.55 82.7354 111.455 84.6593 111.455 87.0514C111.455 89.4437 109.562 91.3549 107.18 91.3549C104.81 91.3549 102.917 89.4563 102.917 87.0514C102.917 84.6466 104.81 82.7354 107.18 82.7354ZM107.18 89.4309C108.484 89.4309 109.55 88.3551 109.55 87.0514C109.55 85.7351 108.484 84.6466 107.18 84.6466C105.889 84.6466 104.823 85.7351 104.823 87.0514C104.823 88.3551 105.889 89.4309 107.18 89.4309Z" fill="white"/>
<path d="M114.288 83.0771C114.288 82.9505 114.389 82.8492 114.514 82.8492H115.918C116.031 82.8492 116.144 82.9632 116.144 83.0771V89.469H118.965C119.09 89.469 119.19 89.5829 119.19 89.6967V91.0004C119.19 91.1144 119.09 91.2284 118.965 91.2284H114.514C114.376 91.2284 114.288 91.127 114.288 91.0004V83.0771Z" fill="white"/>
<path d="M125.486 82.7354C127.855 82.7354 129.761 84.6593 129.761 87.0514C129.761 89.4437 127.868 91.3549 125.486 91.3549C123.116 91.3549 121.223 89.4563 121.223 87.0514C121.223 84.6466 123.104 82.7354 125.486 82.7354ZM125.486 89.4309C126.79 89.4309 127.855 88.3551 127.855 87.0514C127.855 85.7351 126.79 84.6466 125.486 84.6466C124.194 84.6466 123.129 85.7351 123.129 87.0514C123.129 88.3551 124.194 89.4309 125.486 89.4309Z" fill="white"/>
<path d="M133.497 82.9251C133.51 82.824 133.622 82.7354 133.71 82.7354H133.898C133.961 82.7354 134.061 82.7859 134.099 82.8492L136.844 88.026H136.87L139.628 82.8492C139.665 82.7733 139.766 82.7354 139.828 82.7354H140.016C140.117 82.7354 140.217 82.824 140.23 82.9251L141.571 90.9752C141.596 91.127 141.483 91.241 141.345 91.241H139.941C139.828 91.241 139.728 91.1397 139.716 91.0511L139.176 87.3552H139.151L137.158 91.2284C137.12 91.3043 137.02 91.3549 136.957 91.3549H136.744C136.669 91.3549 136.581 91.2916 136.544 91.2284L134.538 87.3552H134.513L133.986 91.0511C133.973 91.1397 133.886 91.241 133.76 91.241H132.356C132.218 91.241 132.105 91.127 132.13 90.9752L133.497 82.9251Z" fill="white"/>
<path d="M145.194 83.0771C145.194 82.9505 145.282 82.8492 145.42 82.8492H148.19C149.595 82.8492 150.736 83.8239 150.736 85.0769C150.736 86.0009 149.921 86.6717 149.357 86.9629C149.983 87.2287 150.949 87.8109 150.949 88.912C150.949 90.2537 149.77 91.2156 148.366 91.2156H145.42C145.295 91.2156 145.194 91.1018 145.194 90.9878V83.0771ZM147.977 86.254C148.429 86.254 148.804 85.8743 148.804 85.3934C148.804 84.9124 148.429 84.5833 147.977 84.5833H147.05V86.254H147.977ZM148.128 89.5196C148.592 89.5196 148.98 89.1399 148.98 88.6462C148.98 88.1653 148.466 87.8109 148.002 87.8109H147.037V89.5196H148.128Z" fill="white"/>
<path d="M154.108 83.0771C154.108 82.9505 154.22 82.8492 154.334 82.8492H155.75C155.876 82.8492 155.976 82.9632 155.976 83.0771V91.0004C155.976 91.1144 155.876 91.2284 155.75 91.2284H154.334C154.208 91.2284 154.108 91.127 154.108 91.0004V83.0771Z" fill="white"/>
<path d="M158.622 90.9245L162.333 82.8619C162.37 82.7859 162.445 82.7354 162.532 82.7354H162.658C162.747 82.7354 162.822 82.7987 162.859 82.8619L166.57 90.9245C166.646 91.0764 166.545 91.241 166.369 91.241H165.054C164.839 91.241 164.739 91.1651 164.639 90.9372L164.213 89.9879H160.991L160.565 90.9499C160.502 91.0891 160.376 91.241 160.138 91.241H158.834C158.647 91.2284 158.546 91.0764 158.622 90.9245ZM163.498 88.3551L162.596 86.3806H162.583L161.694 88.3551H163.498Z" fill="white"/>
<path d="M169.177 82.9505C169.177 82.8366 169.289 82.7354 169.403 82.7354H169.703L174.431 87.3298H174.442V83.0771C174.442 82.9632 174.543 82.8492 174.668 82.8492H176.085C176.198 82.8492 176.311 82.9632 176.311 83.0771V91.1397C176.311 91.2536 176.198 91.3549 176.085 91.3549H175.897C175.859 91.3549 175.772 91.3169 175.746 91.2916L171.057 86.5325H171.045V91.0004C171.045 91.1144 170.945 91.2284 170.819 91.2284H169.403C169.289 91.2284 169.177 91.1144 169.177 91.0004V82.9505Z" fill="white"/>
<path d="M183.26 82.7354C185.629 82.7354 187.534 84.6593 187.534 87.0514C187.534 89.4437 185.64 91.3549 183.26 91.3549C180.889 91.3549 178.996 89.4563 178.996 87.0514C178.996 84.6466 180.889 82.7354 183.26 82.7354ZM183.26 89.4309C184.562 89.4309 185.629 88.3551 185.629 87.0514C185.629 85.7351 184.562 84.6466 183.26 84.6466C181.967 84.6466 180.902 85.7351 180.902 87.0514C180.902 88.3551 181.967 89.4309 183.26 89.4309Z" fill="white"/>
<path fill-rule="evenodd" clip-rule="evenodd" d="M110.738 10.0586C122.56 8.22328 131.926 14.767 135.424 20.5387C137.756 24.3865 138.307 27.1964 138.621 29.5886C143.372 67.0539 88.5089 67.0033 91.1542 31.4239C91.6809 24.3485 94.0254 20.8299 96.1065 18.1339C99.0654 14.2608 104.206 11.0838 110.738 10.0586ZM101.723 39.8663C102.739 42.9799 105.886 46.8404 109.108 48.2073C117.57 51.7893 125.557 46.7897 127.939 40.4612C132.202 29.1203 124.24 17.6023 113.584 18.8173C104.043 19.8805 98.2881 29.4241 101.723 39.8663Z" fill="white"/>
<path fill-rule="evenodd" clip-rule="evenodd" d="M187.091 57.3838H177.173V10.4004C180.32 10.4004 187.116 10.4004 187.116 15.5645C187.116 19.425 187.091 57.3838 187.091 57.3838Z" fill="white"/>
<path fill-rule="evenodd" clip-rule="evenodd" d="M167.86 48.6757H167.558C167.52 48.6757 167.483 48.6757 167.445 48.6757H155.133L155.121 19.425V15.5392C155.121 10.4004 148.287 10.4004 145.154 10.4004V11.6787V10.8687V57.3838H172.259C172.259 54.6373 172.259 48.6757 167.86 48.6757Z" fill="white"/>
<path fill-rule="evenodd" clip-rule="evenodd" d="M85.1253 19.7538C81.3766 10.995 71.773 9.48885 63.6613 9.48885C63.6487 9.48885 63.6362 9.48885 63.6112 9.48885C60.4643 9.48885 53.4182 10.4761 53.4182 10.4761L53.4058 57.371C56.5527 57.371 63.5987 57.371 63.5987 52.2068V52.1183V44.6378C80.6244 47.182 91.1683 33.8413 85.1253 19.7538ZM70.7575 36.3474C66.9461 36.7524 63.5736 36.2461 63.5736 36.2461V18.8678C63.5736 18.8678 66.6327 18.6653 70.607 18.9311C74.5814 19.1843 77.3521 23.0827 77.3521 27.8291C77.3646 32.5756 74.5688 35.9424 70.7575 36.3474Z" fill="white"/>
<path d="M40.0667 5.03317C24.5831 25.9808 15.9323 66.0409 36.1676 97.0636C39.302 101.608 41.6715 103.873 41.6715 103.873C18.9663 69.8253 35.3151 25.2213 52.2154 2.36251L37.0578 0.400646C37.0578 0.400646 29.9993 -1.59919 27.028 3.33711L40.0667 5.03317Z" fill="white"/>
<path d="M40.345 103.899C13.9538 75.1667 16.9252 29.6136 32.8351 8.10895C32.8351 8.10895 20.9623 6.6787 18.6553 6.43821C15.7592 6.13444 9.70368 4.8181 8.34965 11.6023C-4.93995 77.9767 40.345 103.899 40.345 103.899Z" fill="#3DB2DE"/>
<path d="M53.475 98.431C53.475 98.355 53.5503 98.2791 53.6254 98.2791H53.9389C54.0142 98.2791 54.0894 98.355 54.0894 98.431V103.76C54.0894 103.836 54.0142 103.912 53.9389 103.912H53.6254C53.5503 103.912 53.475 103.836 53.475 103.76V98.431Z" fill="white"/>
<path d="M56.8327 98.3423C56.8327 98.2662 56.9079 98.2029 56.9831 98.2029H57.1838L60.782 102.722H60.7944V98.4308C60.7944 98.3549 60.8572 98.279 60.9449 98.279H61.2208C61.296 98.279 61.3712 98.3549 61.3712 98.4308V103.848C61.3712 103.924 61.296 103.987 61.2208 103.987H61.0829L57.4219 99.38H57.4095V103.759C57.4095 103.835 57.3467 103.911 57.259 103.911H56.9831C56.9079 103.911 56.8327 103.835 56.8327 103.759V98.3423Z" fill="white"/>
<path d="M63.7669 103.076C63.8046 103.025 63.8421 102.975 63.8923 102.924C63.9675 102.823 64.0552 102.76 64.168 102.848C64.2182 102.899 64.8075 103.456 65.5095 103.456C66.149 103.456 66.5753 103.051 66.5753 102.57C66.5753 102.013 66.0988 101.684 65.1836 101.304C64.306 100.912 63.7794 100.557 63.7794 99.6332C63.7794 99.089 64.2057 98.2029 65.472 98.2029C66.2493 98.2029 66.8386 98.608 66.8386 98.608C66.8887 98.6333 66.9764 98.7346 66.8887 98.8865C66.851 98.9371 66.826 98.9877 66.7884 99.0383C66.7132 99.1523 66.6379 99.1775 66.5125 99.1142C66.4624 99.0764 65.9483 98.7473 65.472 98.7473C64.6319 98.7473 64.3687 99.2915 64.3687 99.6332C64.3687 100.177 64.7699 100.481 65.4469 100.772C66.525 101.215 67.2146 101.62 67.2146 102.557C67.2146 103.392 66.4248 104 65.497 104C64.5568 104 63.9174 103.443 63.817 103.354C63.7543 103.291 63.6792 103.228 63.7669 103.076Z" fill="white"/>
<path d="M70.2882 98.823H68.8965C68.8088 98.823 68.7462 98.7471 68.7462 98.6712V98.4433C68.7462 98.3674 68.8088 98.2914 68.8965 98.2914H72.2816C72.3694 98.2914 72.4321 98.3674 72.4321 98.4433V98.6712C72.4321 98.7471 72.3694 98.823 72.2816 98.823H70.8901V103.759C70.8901 103.835 70.8148 103.911 70.7396 103.911H70.4387C70.3634 103.911 70.2882 103.835 70.2882 103.759V98.823Z" fill="white"/>
<path d="M74.423 98.431C74.423 98.355 74.4984 98.2791 74.5735 98.2791H74.8869C74.9621 98.2791 75.0374 98.355 75.0374 98.431V103.76C75.0374 103.836 74.9621 103.912 74.8869 103.912H74.5735C74.4984 103.912 74.423 103.836 74.423 103.76V98.431Z" fill="white"/>
<path d="M78.5729 98.823H77.1812C77.0935 98.823 77.0307 98.7471 77.0307 98.6712V98.4433C77.0307 98.3674 77.0935 98.2914 77.1812 98.2914H80.5663C80.654 98.2914 80.7168 98.3674 80.7168 98.4433V98.6712C80.7168 98.7471 80.654 98.823 80.5663 98.823H79.1746V103.759C79.1746 103.835 79.0994 103.911 79.0242 103.911H78.7232C78.6481 103.911 78.5729 103.835 78.5729 103.759V98.823Z" fill="white"/>
<path d="M82.6499 98.431C82.6499 98.355 82.7253 98.2791 82.8004 98.2791H83.1013C83.1892 98.2791 83.2518 98.355 83.2518 98.431V101.785C83.2518 102.696 83.816 103.418 84.7563 103.418C85.6965 103.418 86.2733 102.722 86.2733 101.798V98.431C86.2733 98.355 86.336 98.2791 86.4238 98.2791H86.7246C86.7998 98.2791 86.8751 98.355 86.8751 98.431V101.836C86.8751 103.064 86.0099 103.988 84.7563 103.988C83.5026 103.988 82.6499 103.051 82.6499 101.836V98.431Z" fill="white"/>
<path d="M92.0135 98.2029C92.8157 98.2029 93.405 98.4815 93.9441 98.9498C94.0069 99.0131 94.0194 99.1142 93.9567 99.1775L93.7435 99.3928C93.6809 99.4687 93.6182 99.4687 93.5304 99.38C93.1167 99.0131 92.5526 98.7725 92.0135 98.7725C90.7597 98.7725 89.7943 99.8483 89.7943 101.089C89.7943 102.329 90.7597 103.392 92.0135 103.392C92.7029 103.392 93.1167 103.114 93.5304 102.785C93.6056 102.722 93.6684 102.734 93.7184 102.76L93.9567 103C94.0194 103.051 94.0069 103.165 93.9441 103.215C93.405 103.747 92.7155 104 92.0009 104C90.4087 104 89.1172 102.722 89.1172 101.114C89.1298 99.494 90.4212 98.2029 92.0135 98.2029Z" fill="white"/>
<path d="M96.3 98.431C96.3 98.355 96.3753 98.2791 96.4505 98.2791H96.7639C96.839 98.2791 96.9144 98.355 96.9144 98.431V103.76C96.9144 103.836 96.839 103.912 96.7639 103.912H96.4505C96.3753 103.912 96.3 103.836 96.3 103.76V98.431Z" fill="white"/>
<path d="M102.118 98.203C103.71 98.203 104.989 99.494 104.989 101.114C104.989 102.722 103.71 104 102.118 104C100.526 104 99.2596 102.722 99.2596 101.114C99.2596 99.494 100.526 98.203 102.118 98.203ZM102.118 103.43C103.384 103.43 104.425 102.38 104.425 101.102C104.425 99.8231 103.384 98.7599 102.118 98.7599C100.852 98.7599 99.8112 99.8231 99.8112 101.102C99.8112 102.392 100.852 103.43 102.118 103.43ZM101.403 97.4435C101.366 97.3802 101.403 97.317 101.454 97.2917L102.645 96.6209C102.695 96.5829 102.808 96.5702 102.858 96.6462L102.996 96.9372C103.033 97.0005 103.008 97.0766 102.946 97.1018L101.667 97.646C101.554 97.6967 101.516 97.6967 101.479 97.6334L101.403 97.4435Z" fill="white"/>
<path d="M107.325 98.3423C107.325 98.2662 107.4 98.2029 107.475 98.2029H107.676L111.274 102.722C111.287 102.722 111.287 102.722 111.287 102.722V98.4308C111.287 98.3549 111.35 98.279 111.437 98.279H111.713C111.788 98.279 111.863 98.3549 111.863 98.4308V103.848C111.863 103.924 111.788 103.987 111.713 103.987H111.575L107.914 99.38H107.902V103.759C107.902 103.835 107.839 103.911 107.751 103.911H107.475C107.4 103.911 107.325 103.835 107.325 103.759V98.3423Z" fill="white"/>
<path d="M117.427 98.431C117.427 98.355 117.502 98.2791 117.577 98.2791H117.878C117.966 98.2791 118.029 98.355 118.029 98.431V101.785C118.029 102.696 118.593 103.418 119.533 103.418C120.474 103.418 121.05 102.722 121.05 101.798V98.431C121.05 98.355 121.113 98.2791 121.201 98.2791H121.502C121.577 98.2791 121.652 98.355 121.652 98.431V101.836C121.652 103.064 120.787 103.988 119.533 103.988C118.28 103.988 117.427 103.051 117.427 101.836V98.431Z" fill="white"/>
<path d="M124.321 98.3423C124.321 98.2662 124.396 98.2029 124.472 98.2029H124.672L128.27 102.722C128.283 102.722 128.283 102.722 128.283 102.722L128.295 98.4308C128.295 98.3549 128.358 98.279 128.446 98.279H128.722C128.797 98.279 128.872 98.3549 128.872 98.4308V103.848C128.872 103.924 128.797 103.987 128.722 103.987H128.584L124.923 99.38H124.91V103.759C124.91 103.835 124.848 103.911 124.76 103.911H124.484C124.409 103.911 124.334 103.835 124.334 103.759V98.3423H124.321Z" fill="white"/>
<path d="M131.619 98.431C131.619 98.355 131.694 98.2791 131.77 98.2791H132.083C132.158 98.2791 132.233 98.355 132.233 98.431V103.76C132.233 103.836 132.158 103.912 132.083 103.912H131.77C131.694 103.912 131.619 103.836 131.619 103.76V98.431Z" fill="white"/>
<path d="M134.227 98.4942C134.177 98.3931 134.239 98.2791 134.365 98.2791H134.678C134.753 98.2791 134.804 98.3298 134.816 98.3677L136.797 102.874H136.835L138.816 98.3677C138.828 98.3298 138.891 98.2791 138.954 98.2791H139.267C139.392 98.2791 139.455 98.3804 139.405 98.4942L136.985 103.912C136.96 103.962 136.91 104 136.847 104H136.772C136.722 104 136.659 103.962 136.634 103.912L134.227 98.4942Z" fill="white"/>
<path d="M141.387 98.431C141.387 98.355 141.449 98.2791 141.537 98.2791H144.684C144.772 98.2791 144.834 98.355 144.834 98.431V98.6589C144.834 98.7348 144.772 98.8107 144.684 98.8107H142.001V100.773H144.283C144.358 100.773 144.433 100.849 144.433 100.924V101.152C144.433 101.241 144.358 101.304 144.283 101.304H142.001V103.355H144.684C144.772 103.355 144.834 103.431 144.834 103.507V103.734C144.834 103.81 144.772 103.886 144.684 103.886H141.537C141.449 103.886 141.387 103.81 141.387 103.734V98.431Z" fill="white"/>
<path d="M147.231 98.431C147.231 98.355 147.293 98.2791 147.381 98.2791H149.45C150.402 98.2791 151.193 99.0386 151.193 99.9878C151.193 100.735 150.704 101.342 150.014 101.633L151.105 103.684C151.156 103.785 151.105 103.912 150.967 103.912H150.566C150.491 103.912 150.453 103.874 150.441 103.836L149.375 101.709H147.858V103.76C147.858 103.836 147.782 103.912 147.707 103.912H147.394C147.306 103.912 147.243 103.836 147.243 103.76V98.431H147.231ZM149.413 101.178C150.027 101.178 150.566 100.659 150.566 100C150.566 99.3929 150.027 98.8614 149.413 98.8614H147.87V101.165H149.413V101.178Z" fill="white"/>
<path d="M153.259 103.076C153.297 103.025 153.334 102.975 153.384 102.924C153.46 102.823 153.547 102.76 153.661 102.848C153.711 102.899 154.3 103.456 155.002 103.456C155.641 103.456 156.068 103.051 156.068 102.57C156.068 102.013 155.591 101.684 154.675 101.304C153.798 100.912 153.272 100.557 153.272 99.6332C153.272 99.089 153.697 98.2029 154.965 98.2029C155.742 98.2029 156.331 98.608 156.331 98.608C156.381 98.6333 156.468 98.7346 156.381 98.8865C156.343 98.9371 156.318 98.9877 156.281 99.0383C156.205 99.1523 156.13 99.1775 156.004 99.1142C155.954 99.0764 155.44 98.7473 154.965 98.7473C154.124 98.7473 153.861 99.2915 153.861 99.6332C153.861 100.177 154.262 100.481 154.94 100.772C156.018 101.215 156.707 101.62 156.707 102.557C156.707 103.392 155.917 104 154.99 104C154.049 104 153.409 103.443 153.309 103.354C153.247 103.291 153.158 103.228 153.259 103.076Z" fill="white"/>
<path d="M158.977 98.431C158.977 98.355 159.053 98.2791 159.127 98.2791H159.441C159.517 98.2791 159.592 98.355 159.592 98.431V103.76C159.592 103.836 159.517 103.912 159.441 103.912H159.127C159.053 103.912 158.977 103.836 158.977 103.76V98.431Z" fill="white"/>
<path d="M163.138 98.823H161.747C161.66 98.823 161.596 98.7471 161.596 98.6712V98.4433C161.596 98.3674 161.66 98.2914 161.747 98.2914H165.132C165.219 98.2914 165.282 98.3674 165.282 98.4433V98.6712C165.282 98.7471 165.219 98.823 165.132 98.823H163.741V103.759C163.741 103.835 163.665 103.911 163.59 103.911H163.289C163.213 103.911 163.138 103.835 163.138 103.759V98.823Z" fill="white"/>
<path d="M166.211 103.709L168.631 98.2916C168.656 98.2409 168.694 98.2029 168.769 98.2029H168.845C168.92 98.2029 168.957 98.2409 168.982 98.2916L171.39 103.709C171.44 103.81 171.376 103.924 171.252 103.924H170.938C170.862 103.924 170.812 103.873 170.8 103.835L170.211 102.506H167.378L166.801 103.835C166.789 103.873 166.739 103.924 166.663 103.924H166.349C166.225 103.911 166.161 103.81 166.211 103.709ZM169.998 102C169.61 101.127 169.22 100.241 168.832 99.3548H168.769L167.603 102H169.998Z" fill="white"/>
<path d="M173.382 98.431C173.382 98.355 173.444 98.2791 173.531 98.2791H175.6C176.553 98.2791 177.343 99.0386 177.343 99.9878C177.343 100.735 176.854 101.342 176.164 101.633L177.256 103.684C177.306 103.785 177.256 103.912 177.117 103.912H176.703C176.628 103.912 176.591 103.874 176.578 103.836L175.513 101.709H173.995V103.76C173.995 103.836 173.921 103.912 173.846 103.912H173.531C173.444 103.912 173.382 103.836 173.382 103.76V98.431ZM175.55 101.178C176.164 101.178 176.703 100.659 176.703 100C176.703 99.3929 176.164 98.8614 175.55 98.8614H174.008V101.165H175.55V101.178Z" fill="white"/>
<path d="M179.764 98.431C179.764 98.355 179.839 98.2791 179.914 98.2791H180.227C180.303 98.2791 180.378 98.355 180.378 98.431V103.76C180.378 103.836 180.303 103.912 180.227 103.912H179.914C179.839 103.912 179.764 103.836 179.764 103.76V98.431Z" fill="white"/>
<path d="M182.359 103.709L184.779 98.2916C184.804 98.2409 184.841 98.2029 184.917 98.2029H184.992C185.067 98.2029 185.104 98.2409 185.129 98.2916L187.537 103.709C187.587 103.81 187.525 103.924 187.399 103.924H187.086C187.011 103.924 186.961 103.873 186.947 103.835L186.358 102.506H183.525L182.948 103.835C182.936 103.873 182.886 103.924 182.811 103.924H182.497C182.384 103.911 182.322 103.81 182.359 103.709ZM186.145 102C185.757 101.127 185.369 100.241 184.979 99.3548H184.917L183.751 102H186.145Z" fill="white"/>
</g>
<defs>
<clipPath id="clip0_390_5">
<rect width="192" height="104" fill="white"/>
</clipPath>
</defs>
</svg>
