<svg width="185" height="157" viewBox="0 0 185 157" fill="none" xmlns="http://www.w3.org/2000/svg">
<path fill-rule="evenodd" clip-rule="evenodd" d="M174.8 48.1775L176.083 41.7998L174.428 35.5471L163.847 31.865L156.784 33.6435L149.128 33.1989L143.886 31.4203L141.555 26.8628L141.334 22.4721L138.34 18.8178L140.01 13.76V5.74274L136.244 9.04971L131.526 10.0362L127.581 14.2186L124.132 14.7605L111.993 1.62988L105.881 11.1895L101.729 14.6771L94.8181 18.9567L85.7135 15.5247L79.5749 5.47874L78.3609 6.1318L74.9812 13.5377L71.5739 14.5104L66.6906 11.4535L62.9384 14.0935L57.5447 15.1217L54.0132 17.998H50.7025L49.3506 23.4586L51.5301 30.809L50.9784 35.5471L42.8946 33.7686L38.3424 34.8802L30.4518 28.961L30.7415 21.2216L19.6367 19.9849L11.8289 15.3996L7.12485 22.4026L3.17955 24.6119L3.89688 39.5905L1 46.4406V59.7796L6.00748 67.7969L4.55903 73.4799L11.7185 90.5983L8.62849 98.0737L10.7805 113.316L2.58639 130.407L5.80057 132.06L29.224 133.172L33.4866 131.505L40.8806 131.838L53.6132 134.395L112.296 145.066L145.5 150.068L164.73 151.847L172.124 152.291L180.18 154.987L182.429 151.805L183.298 148.109L182.939 145.511L176.911 132.144L170.124 122.084L171.006 114.497L176.055 105.327L179.725 100.214V91.835L173.2 90.0286L171.972 82.5949L176.511 74.9667L178.318 59.3767L176.359 51.151L174.8 48.2053V48.1775Z" fill="#F5F5F5" stroke="black" stroke-width="2" stroke-miterlimit="10"/>
</svg>
