<svg width="147" height="146" viewBox="0 0 147 146" fill="none" xmlns="http://www.w3.org/2000/svg">
<path fill-rule="evenodd" clip-rule="evenodd" d="M5.59579 60.107L10.1067 61.7883L6.82353 76.8642L12.7553 81.6301L9.03069 87.7299L7.20978 88.0078V91.023L12.3276 90.5644L19.156 94.3299L23.6531 92.5236L33.544 93.8436L61.7128 108.739L68.6792 105.585L71.0519 97.6647L74.0729 95.0247L77.2595 98.818L77.1905 101.736L84.1431 105.863L90.7646 103.89L92.0751 99.9295L96.0066 101.333L99.2483 119.994L110.229 126.594L112.988 138.099L116.768 144.24L130.245 131.651L131.073 124.412L136.053 120.633L144.247 103.542L142.095 88.2996L145.185 80.8242L138.025 63.7058L139.474 58.0228L134.466 50.0055V36.6665L137.363 29.8163L136.646 14.8377L140.591 12.6285L145.295 5.62547L139.184 1.23471L117.816 2.0684L114.988 7.01495L109.125 2.54082L105.263 3.56903L101.4 6.98716L96.8343 2.62419L88.8609 4.83346L83.0533 1.19302L78.4459 4.30546L75.8663 10.1274L67.2583 5.58378L63.1199 1.65155L51.7668 2.44355L45.8075 8.27937L30.0401 16.5746L31.1575 20.6458L22.8392 26.7178L17.9973 32.6509L15.059 41.9743L11.7069 45.4758L7.74778 47.963L9.40315 54.0072L5.582 60.1209L5.59579 60.107Z" fill="#F5F5F5" stroke="black" stroke-width="2" stroke-miterlimit="10"/>
</svg>
