<svg width="267" height="376" viewBox="0 0 267 376" fill="none" xmlns="http://www.w3.org/2000/svg">
<path fill-rule="evenodd" clip-rule="evenodd" d="M179.876 294.443L168.33 275.365L170.22 260.748L157.805 255.148L139.706 254.231L141.9 248.076L140.299 242.156L150.011 226.455V223.218L145.045 220.328L153.363 203.821L154.025 193.566L159.667 189.634L161.502 180.297L167.103 174.53V164.846L174.359 156.287L179.283 151.771L186.65 148.241L194.113 141.419L206.349 129.483L213.287 119.368L218.46 110.003L222.888 104.348L226.751 101.013L234.352 99.0121L240.146 92.0231L247.388 89.3275L253.058 79.2537L260.438 69.0827L264.769 51.4502L265.252 39.848L264.273 32.8589L259.831 16.4353L254.561 13.5174L234.021 5.13884L220.378 2.33206L218.033 19.4088L210.073 34.5958L201.672 33.2897L189.478 27.5928L169.31 54.6182L162.316 54.8683L153.032 47.1706L148.093 46.1563L144.521 46.9344L139.913 42.2241L135.499 46.2813L124.38 34.9849L130.836 28.357L135.375 21.5069L127.553 13.4479L119.386 21.8682L114.958 15.018L110.379 14.4622L112.751 5.08325V1.06763L109.992 1.24827L108.116 6.45882L109.068 9.50178L101.771 18.5195L102.129 23.5911L93.273 32.1087L94.018 35.6935L90.3486 38.9727L89.2726 45.1698L81.5199 58.2726L79.5059 71.2642L72.8706 83.5194L69.0771 85.5898H63.7661V89.2441L59.269 92.2454L56.2204 98.234L49.9575 104.112L45.0466 101.847L36.3145 101.138L32.5072 94.0378L28.8516 90.4668L22.6853 98.1784L21.9266 103.848L18.6711 107.752L14.7809 107.696L10.9736 110.614V113.685L13.1256 114.797L15.1672 118.451L13.1394 121.258L6.91795 126.704L1 129.817V133.374L5.23499 137.931L5.7454 140.822L2.37947 145.56L7.19384 147.269L6.68344 152.34L8.46295 153.841L8.82162 156.856L7.64907 161.58L8.62849 168.194L14.4499 168.82V173.947L15.9811 176.795H20.023L22.8647 177.851L26.8927 180.491L29.4034 184.16V194.984L33.6246 196.276L35.073 199.916L33.4039 201.709V203.723L35.2386 205.96V211.685L39.4597 215.979L40.4668 219.105L39.1563 228.859L37.763 231.332L34.3005 235.181L30.0241 236.696L21.1679 244.796H17.4295L14.9603 246.492L16.6294 251.146L15.5121 252.953L17.4985 257.121L17.0157 259.9L25.9133 268.473V269.696L24.6166 271.877L25.3615 273.267L29.1965 274.114L27.8032 277.032L28.5205 278.102L33.8729 278.741L37.2112 280.798L43.2395 288.607L49.9437 293.817L55.8893 300.056L58.9103 307.295L60.6071 308.796L62.5521 309.143L66.3457 308.643L68.2632 309.588L72.5671 313.923L75.2433 319.495L77.0504 324.441L78.4161 330.722L77.754 346.395L78.1264 352.578L79.4093 355.552L81.5337 357.414L84.4444 359.734L87.4241 363.75L89.6726 368.655L91.1073 374.213H98.4323L104.143 372.865L112.075 369.349L116.655 371.156L118.035 372.462L120.876 368.113L123.553 363.778L127.912 362.958L131.898 358.317L132.712 355.399L132.34 351.05L149.294 355.357L153.17 350.383L158.798 344.881L163.074 338.892L164.054 336.697V333.723L167.296 332.751L176.469 334.279L181.642 336.252L183.38 337.169H184.346L184.884 336.127L184.649 333.098L183.711 328.846L183.035 324.553L182.028 321.774L181.559 319.161L180.952 312.7L178.373 309.532L179.904 294.47L179.876 294.443Z" fill="#F5F5F5" stroke="black" stroke-width="2" stroke-miterlimit="10"/>
</svg>
