<svg width="256" height="274" viewBox="0 0 256 274" fill="none" xmlns="http://www.w3.org/2000/svg">
<path fill-rule="evenodd" clip-rule="evenodd" d="M101.378 252.722L106.399 256.196L110.758 257.905L113.765 256.988L115.959 257.293L122.801 264.435L129.064 272.939H130.65L135.161 264.699L138.83 263.768L141.562 259.405L143.589 254L146.983 250.749L154.198 248.012L156.088 249.29L155.825 251.374L154.294 253.542L150.514 259.378L150.777 262.365L151.452 267.034L154.515 269.396L159.205 269.84L162.309 269.354L166.778 269.312L170.351 268.076L173.979 264.157V259.753L175.4 254.361L180.284 253.236L183.705 253.611L184.325 257.418L187.774 260.295L189.291 264.769L186.781 271.244L196.327 265.102L201.707 256.557V262.393L197.941 269.173L203.321 267.145L209.308 263.31L213.625 261.059L215.474 257.974L216.039 253.82V248.817L219.061 248.095L220.73 246.817L222.302 244.288L222.689 240.55L221.419 237.493L219.198 235.812L216.302 235.465L215.419 233.811L216.343 228.225L217.86 221.709L218.923 215.414V210.509L220.633 210.079L223.102 211.482L225.254 209.815L227.517 205.563L230.552 203.229L235.062 206.48L236.828 203.743H238.263L241.146 209.314L244.457 207.064L247.767 206.661V204.535L244.953 199.977L247.271 197.587L249.63 198.657H251.616L254.278 195.559L254.582 193.071L254.196 191.14L250.913 188L247.919 187.319L247.602 184.846L248.609 183.067L250.195 178.621L251.092 172.493L249.492 166.824L243.201 160.919V153.86L233.297 155.861L224.427 158.946L220.15 164.504L209.57 155.097L204.866 159.543L196.685 158.237L185.263 145.023H180.642L175.8 152.79L171.248 155.514L168.641 158.362L169.317 164.393L176.655 169.881L177.29 173.132L175.676 175.578L173.124 175.314L164.916 168.992L162.543 155.528L153.37 143.745L150.735 139.16L148.514 142.133L145.7 138.215L147.824 133.741L131.671 122.958L132.209 118.262L131.174 107.271L129.16 98.9202L129.477 93.0566L121.614 75.1184L120.801 70.0468L115.503 57.875L124.898 46.9259L95.5837 50.7469L93.2662 54.4013L100.826 58.528L101.115 78.0641L93.3076 76.9664L89.9969 79.1618L82.9202 76.8275L77.8161 80.6208L67.3597 84.8587L73.1535 77.0359H68.4909L62.6281 71.8948L59.6209 74.3126L58.8621 68.2961L53.7857 59.0977L54.4892 50.4968L56.4067 45.1473L50.1163 45.4808L48.9575 43.3549L47.6194 47.2455L42.6257 45.7726L45.5088 40.0757L48.7368 37.9498L53.6753 36.8244L52.2544 34.9208L45.5916 32.7115L48.1298 29.0293L37.563 26.306L35.9215 20.6925L36.3767 16.4407L34.1833 16.3156L33.3005 10.7577L41.0945 7.68694L36.0456 1.55933L28.7896 10.1185V19.8032L23.1889 25.5696L21.3542 34.9069L15.7122 38.8391L15.05 49.0934L6.73179 65.6005L11.6979 68.4906V71.7281L1.98641 87.4292L3.58659 93.3484L1.39323 99.5038L19.4919 100.421L31.9072 106.02L30.0173 120.638L41.5635 139.715L40.0323 154.777L42.6119 157.945L43.2189 164.406L45.3157 161.586L48.5988 159.932L49.7576 163.559H53.0821L59.745 160.933L68.1322 156.222L74.7951 153.694L79.4439 149.206L83.3202 147.622H91.1832L92.5213 146.538L95.8872 145.996L98.4806 144.843H101.902L102.95 146.093H104.15L105.088 145.079L106.454 144.398L110.179 146.149L117.2 147.858L119.118 149.483L119.435 151.623L118.18 152.902L113.862 154.68L105.778 159.335L103.847 161.03L104.233 162.558L105.019 164.406L104.412 165.921L103.309 166.699L100.522 166.921L99.7773 170.173L97.3081 170.59L96.1079 171.743L96.7287 173.785L97.1839 176.412L95.5424 179.302L93.6663 180.677L91.2108 182.928L92.673 185.624L93.818 188.014L94.1629 194.197L96.3838 195.809L99.06 197.434L100.136 200.866L96.2459 207.772L97.2391 208.912L99.0186 208.411L99.805 208.939L99.9705 210.398L99.7084 213.705L99.9981 214.525L101.267 214.053L106.426 209.565L108.661 208.856L113.834 209.481L116.083 210.232L117.31 209.523L121.587 206.271H123.215L127.408 208.925L133.23 210.19L133.588 211.51L126.153 222.473L125.753 225.446L124.76 227.35L119.049 232.338L112.786 236.604L108.785 237.104L106.826 239.48L104.716 241.745L101.75 243.107L98.729 243.649L93.956 245.538L92.0247 243.982L91.1694 245.163L91.3074 247.108L92.3558 249.484L92.0799 251.708L90.4383 256.39L89.9141 258.46L90.2314 260.628L91.9833 261.392L93.5697 259.072L97.4598 252.75L99.2807 252.055L101.253 252.708L101.378 252.722Z" fill="#F5F5F5" stroke="black" stroke-width="2" stroke-miterlimit="10"/>
</svg>
