<svg width="156" height="139" viewBox="0 0 156 139" fill="none" xmlns="http://www.w3.org/2000/svg">
<path fill-rule="evenodd" clip-rule="evenodd" d="M44.8932 29.3212L46.7141 29.0434L50.4387 22.9435L44.5069 18.1776L47.7901 3.10175L43.2792 1.42047L43.0999 6.24197L36.4646 12.7586L33.8436 14.3565L35.4162 16.7465L35.292 22.6101L31.8296 29.2518L31.2088 35.4211L25.7737 40.1036L27.429 44.1609L23.9803 55.513L20.6972 68.0739L16.9312 78.0364L6.40584 88.8605L3.53654 91.4449L1.88116 92.2508L3.27443 93.3346L6.44723 95.3077L9.56484 95.5161L15.9932 93.682L30.6018 94.085L43.4723 92.4176L51.2526 92.362L58.7845 94.5157L72.8138 100.643L79.9594 102.338L92.4575 109.008L97.4926 111.203L103.797 112.44L107.287 113.996L110.473 117.539L113.798 122.014L116.847 128.03L118.323 130.92L120.419 133.074L123.096 134.644L126.793 135.742L134.725 137.617L138.725 128.919L137.732 124.598L140.477 118.512L151.002 113.871L153.513 103.95L152.161 98.5869L153.168 86.7902L154.492 85.5535L150.713 79.412L147.954 67.9071L136.973 61.3071L133.731 42.6464L129.8 41.243L128.489 45.203L121.868 47.1761L114.915 43.0493L114.984 40.1314L111.798 36.3381L108.777 38.9781L106.404 46.8982L99.4376 50.0523L71.2687 35.1571L61.3779 33.8371L56.8808 35.6434L50.0524 31.8779L44.9346 32.3364V29.3212H44.8932Z" fill="#F5F5F5" stroke="black" stroke-width="2" stroke-miterlimit="10"/>
</svg>
