<svg width="236" height="264" viewBox="0 0 236 264" fill="none" xmlns="http://www.w3.org/2000/svg">
<path fill-rule="evenodd" clip-rule="evenodd" d="M182.368 24.3462L177.167 25.1104L164.352 34.3643L160.269 34.7117L159.979 52.511L164.062 57.1518L167.332 63.335L173.677 69.2125L173.029 75.8959L174.298 82.4404L169.015 86.5949L166.614 89.888L162.697 90.6939L162.973 92.9865L159.717 95.043L154.806 94.2371L150.212 95.8906L138.859 110.883L134.583 112.55L127.879 117.997L120.471 111.995L116.871 113.176L110.787 111.133L100.703 99.6838L95.4197 98.5723L93.0333 94.5428L92.6194 86.6088L91.102 85.7196L80.9767 98.072L75.6933 98.4472L69.3615 99.7811L64.6299 105.367L58.3533 106.687L54.8632 109.132L50.5179 108.632L48.49 105.631L48.8073 102.755L44.9861 96.1684L40.7512 91.6109V97.6969L42.1996 101.129L39.013 105.436L38.2543 114.968L36.5024 121.346L34.4884 124.153L30.4189 123.625L27.0806 127.974L18.9417 128.821L15.6309 131.85H9.23019L7.42308 147.44L2.88459 155.069L4.11235 162.502L10.6372 164.309V172.687L6.96783 177.8L1.91894 186.971L1.0361 194.558L7.82309 204.617L13.8514 217.984L14.2101 220.583L13.341 224.279L11.0925 227.46L7.46446 235.242L10.9545 236.687L47.7865 261.767L77.4866 219.179L82.7286 220.916L85.5703 219.402H88.012L89.3501 218.748H91.3365L92.6884 212.565L101.669 215.65L115.063 223.876L117.367 227.599L131.672 214.858L138.239 211.44L140.432 201.547L141.246 193.96V181.344L146.129 173.34L146.985 169.297L157.482 162.947L159.648 151.414L164.283 148.274L168.573 149.65L179.692 142.48L182.685 133.031L186.01 128.015L196.632 121.388L196.715 116.9L207.516 109.035L215.103 105.673L211.861 101.754L212.896 96.9466L218.952 84.608L215.406 79.1473L216.372 71.4496L224.028 67.6146L226.76 59.5834L231.339 53.5392L229.27 47.8145V40.4086L225.587 30.7934L228.167 22.8317L232.236 19.1773L233.547 6.24126L228.553 17.6628L222.069 24.2767L218.993 17.6628L216.041 14.3002L209.93 6.54694L202.067 8.07537L194.728 7.07495L192.314 11.7714L189.983 12.2438L189.472 16.8986L182.327 24.3462H182.368Z" fill="#F5F5F5" stroke="black" stroke-width="2" stroke-miterlimit="10"/>
</svg>
